<?xml version="1.0" encoding="UTF-8"?>
<svg id="Layer_1" data-name="Layer 1" xmlns="http://www.w3.org/2000/svg" viewBox="0 0 214.96 214.96">
  <defs>
    <style>
      .cls-1 {
        fill-rule: evenodd;
      }

      .cls-1, .cls-2 {
        fill: #255944;
      }

      .cls-3 {
        fill: #fff;
      }

      .cls-4 {
        stroke: #002d1a;
      }

      .cls-4, .cls-5 {
        fill: none;
        stroke-miterlimit: 10;
        stroke-width: 2px;
      }

      .cls-5 {
        stroke: #000;
      }
    </style>
  </defs>
  <rect class="cls-5" x="32.58" y="30.73" width="150" height="150"/>
  <rect class="cls-4" x="32.58" y="30.73" width="150" height="150"/>
  <rect class="cls-4" x="32.48" y="32.48" width="150" height="150" transform="translate(-44.52 107.48) rotate(-45)"/>
  <rect class="cls-3" x="14.25" y="79.93" width="55.1" height="55.1" transform="translate(-63.76 61.03) rotate(-45)"/>
  <rect class="cls-3" x="145.56" y="79.93" width="55.1" height="55.1" transform="translate(-25.3 153.88) rotate(-45)"/>
  <rect class="cls-3" x="79.93" y="145.62" width="55.1" height="55.1" transform="translate(-90.97 126.72) rotate(-45)"/>
  <rect class="cls-3" x="79.93" y="14.3" width="55.1" height="55.1" transform="translate(1.89 88.26) rotate(-45)"/>
  <rect class="cls-3" x="33.59" y="31.74" width="147.99" height="147.99"/>
  <path class="cls-1" d="M75.87,161.83c.7-.31,1.12-.93,1.12-1.9v-.13c0-1.65-1.2-2.45-2.95-2.45h-2.72v8.98h2.81c1.76,0,2.95-.8,2.95-2.46v-.11c0-.99-.46-1.61-1.21-1.94M73.06,159.04h.91c.66,0,1.29.18,1.29.96v.14c0,.83-.56,1.02-1.13,1.02h-1.07v-2.12ZM75.35,163.63c0,.88-.61,1.04-1.29,1.04h-1.01v-2.15h1.07c.61,0,1.22.2,1.22.97v.14h0Z"/>
  <path class="cls-1" d="M80.05,166.34h4.99v-1.68h-3.25v-2.04h2.41v-1.53h-2.41v-2.04h3.25v-1.7h-4.99v8.98Z"/>
  <path class="cls-1" d="M89.75,157.36h-1.74v8.98h4.7v-1.68h-2.95v-7.3Z"/>
  <path class="cls-1" d="M95.68,166.34h4.99v-1.68h-3.25v-2.04h2.41v-1.53h-2.41v-2.04h3.25v-1.7h-4.99v8.98Z"/>
  <path class="cls-1" d="M106.56,157.36h-2.93v8.98h2.93c1.77,0,2.99-1.16,2.99-3.33v-2.37c0-2.19-1.22-3.29-2.99-3.29ZM107.82,162.58c0,1.76-.62,2.09-1.46,2.09h-.98v-5.63h.98c1.21,0,1.46.83,1.46,1.8v1.74h0Z"/>
  <path class="cls-1" d="M113.89,155.61c0-.43-.36-.8-.8-.8s-.79.37-.79.8.35.79.79.79.8-.35.8-.79Z"/>
  <path class="cls-2" d="M113.97,157.36h-1.74v8.98h1.74v-8.98Z"/>
  <path class="cls-1" d="M119.27,161.16l-1.57-3.8h-1.82l2.51,5.75v3.24h1.74v-3.24l2.53-5.75h-1.81l-1.59,3.8Z"/>
  <path class="cls-1" d="M125.41,166.34h4.99v-1.68h-3.25v-2.04h2.41v-1.53h-2.41v-2.04h3.25v-1.7h-4.99v8.98Z"/>
  <path class="cls-1" d="M134.99,159.83c0-.68.42-1.03,1.16-1.03s1.21.45,1.21,1.4h1.72c0-1.85-1.18-3.01-2.9-3.01s-2.92.99-2.92,2.64c0,3.18,4.19,2.24,4.19,3.95,0,.74-.53,1.08-1.27,1.08s-1.3-.43-1.3-1.48h-1.73c0,1.92,1.23,3.11,3.03,3.11s3.02-1.02,3.02-2.73c0-3.21-4.2-2.15-4.2-3.94Z"/>
  <path class="cls-1" d="M143.23,155.61c0-.43-.36-.8-.8-.8s-.79.37-.79.8.34.79.79.79.8-.35.8-.79Z"/>
  <path class="cls-2" d="M143.3,157.36h-1.74v8.98h1.74v-8.98Z"/>
  <path class="cls-2" d="M68.75,151.34h-5.91l-5.33-11.25h-1.96v11.25h-5.25v-27.06h5.25v11.13h1.96l5.33-11.13h5.91l-6.71,13.43,6.71,13.63Z"/>
  <path class="cls-2" d="M78.85,146h-7.79l-1.46,5.33h-5.33l7.86-27.06h5.72l7.75,27.06h-5.33l-1.42-5.33ZM72.17,141.44h5.56l-2.72-10.59-2.84,10.59h0Z"/>
  <path class="cls-2" d="M84.56,151.34v-27.06h8.51c5.37,0,8.98,3.49,8.98,9.79v.77c0,4.18-1.8,6.99-4.68,8.29l4.53,8.21h-5.75l-3.61-6.99h-2.72v6.99h-5.25ZM89.81,129.34v9.98h2.61c2.3,0,4.41-1,4.41-4.57v-.77c0-3.72-2.03-4.64-4.41-4.64h-2.61Z"/>
  <path class="cls-2" d="M114.87,146h-7.79l-1.46,5.33h-5.33l7.86-27.06h5.72l7.75,27.06h-5.33l-1.42-5.33ZM108.2,141.44h5.56l-2.72-10.59-2.84,10.59Z"/>
  <path class="cls-2" d="M133.19,129.38h-5.6v21.96h-5.26v-21.96h-5.56v-5.1h16.42v5.1Z"/>
  <path class="cls-2" d="M143.52,146h-7.79l-1.46,5.33h-5.33l7.86-27.06h5.72l7.75,27.06h-5.33l-1.42-5.33h0ZM136.84,141.44h5.56l-2.72-10.59-2.84,10.59h0Z"/>
  <path class="cls-2" d="M151.42,141.59l-7.56-17.31h5.48l4.72,11.44,4.79-11.44h5.45l-7.63,17.31v9.75h-5.25v-9.75Z"/>
  <path class="cls-2" d="M107.99,68.07s-.01-.02-.08-.04c-.02,0-.04-.01-.07-.02-.03,0-.06-.01-.1-.02-.1-.01-.24-.02-.43-.02-.19,0-.33,0-.43.02-.04,0-.15.03-.17.04-.07.02-.08.04-.08.04l-12.38,23.5c.31-.08.61-.08.75-.07h0l9.36-18.4h.09l-9.07,18.12c.16-.08.36-.16.62-.22.94-.2,1.73-.15,1.96-.13l7.92-19.77h.1l-7.66,19.59c.36-.15,1.01-.33,2.17-.38.91-.04,1.49.03,1.73.08l4.75-21.37h.09l-4.53,21.31c.44-.12,1.35-.29,2.64-.23.44.02.97.07,1.44.12.23.03.41.05.54.07l.1-21.03h.12l.08,21.03h0c.13-.02.33-.04.58-.07.47-.05.99-.1,1.44-.12,1.26-.06,2.15.1,2.6.22l-4.53-21.3h.1l4.76,21.37c.23-.04.82-.12,1.76-.08,1.12.05,1.76.22,2.13.36l-7.65-19.58h.1l7.91,19.75s.02.01.03.02c.21-.02,1.01-.07,1.97.13.22.05.4.11.54.18l-9.01-18.08h.09l9.27,18.3s.08.07.11.1c.13,0,.44,0,.74.07l-12.38-23.5h0Z"/>
  <path class="cls-2" d="M85.16,67.33c3.02-8.75,9.98-12.89,14.97-14.8h-14.97v14.8Z"/>
  <path class="cls-2" d="M129.32,67.33v-14.8h-14.97c4.99,1.9,11.94,6.05,14.97,14.8Z"/>
  <path class="cls-2" d="M136.08,62.98v-16.86h-16.85l-11.92-11.92-11.92,11.92h-16.85v16.86l-11.91,11.92,11.91,11.92v16.86h16.44v-4.53h-4.55v-23.99s2.11-14.25,16.94-17.1h.05c14.82,2.85,16.65,17.1,16.65,17.1v1.13h0v22.86h-4.43v4.53h16.42v-16.86l11.91-11.92-11.91-11.92h0ZM107.31,40.6l5.51,5.51h-11.02l5.51-5.51h0ZM78.54,69.39v11.02l-5.51-5.51,5.51-5.51ZM131.54,99.15h-2.2v-20.36c0-22.71-21.23-25.78-22.06-25.89,0,0-.02,0-.02,0,0,0-.02,0-.02,0-.84.11-22.06,3.19-22.06,25.89v20.36h-2.11v-48.51h48.47v48.51h0ZM136.08,69.39l5.51,5.51-5.51,5.51v-11.03Z"/>
  <path class="cls-2" d="M120.92,117.55h-27.22c-.23,0-.42.19-.42.42s.19.42.42.42h27.22c.23,0,.42-.19.42-.42s-.19-.42-.42-.42Z"/>
  <path class="cls-2" d="M120.75,92.57s-.16-.24-.49-.35c-.26-.08-.79-.14-1.18-.12-.09-.17-.27-.28-.43-.37-.32-.17-1.52-.26-2.41-.23-.4-.24-1.22-.39-2.22-.41-.86-.01-1.38.03-1.72.06-.09,0-.17.01-.24.02-.51-.17-1.15-.25-2.19-.27-1.07-.02-1.94.09-2.55.18-.61-.09-1.47-.2-2.55-.18-1.04.02-1.68.09-2.19.27-.07,0-.15-.01-.24-.02-.34-.03-.87-.07-1.72-.06-1,.01-1.82.17-2.22.41-.9-.03-2.09.06-2.41.23-.17.09-.34.2-.44.37-.4-.02-.92.04-1.18.12-.33.11-.48.33-.49.35-.06.09-.02.21.08.26.03.02.07.03.1.03.07,0,.15-.03.18-.1,0,0,.08-.12.27-.18.24-.08.83-.13,1.15-.09.11.02.22-.05.24-.15.01-.07.06-.16.3-.28.18-.1,1.27-.22,2.26-.18.05,0,.1-.01.14-.04.22-.16.89-.35,2.03-.37.84-.01,1.34.03,1.68.05.12.01.21.02.3.02.03,0,.06,0,.09-.01.47-.17,1.07-.24,2.09-.25,1.08-.02,1.95.09,2.54.19.59-.1,1.46-.2,2.54-.19,1.01.02,1.62.09,2.09.25.03,0,.06.01.09.01.08,0,.18-.01.3-.02.33-.03.84-.07,1.68-.05,1.15.02,1.81.21,2.04.37.04.03.09.04.14.04.99-.04,2.07.08,2.26.18.24.13.28.21.3.28.02.1.13.17.24.15.32-.05.91,0,1.15.09.19.06.27.18.27.18.04.06.11.1.18.1.03,0,.07,0,.1-.03.1-.05.14-.17.08-.26Z"/>
  <path class="cls-2" d="M121.12,92.01c-.35-.55-1.23-.56-1.49-.55-.11-.12-.42-.37-1.01-.49-.96-.2-1.76-.15-1.97-.13-.21-.14-.8-.49-2.51-.56-1.05-.04-1.66.06-1.83.09-.26-.1-1.27-.38-2.86-.3-.44.02-.97.07-1.44.12-.35.04-.6.07-.71.09-.11-.03-.36-.05-.71-.09-.47-.05-.99-.1-1.44-.12-1.59-.08-2.6.2-2.86.3-.17-.03-.78-.14-1.82-.09-1.71.07-2.3.43-2.51.56-.21-.02-1.01-.07-1.97.13-.59.12-.89.38-1.01.49-.26-.01-1.15,0-1.49.55-.04.07-.02.15.04.19.02.01.05.02.07.02.05,0,.09-.02.12-.07.31-.49,1.3-.41,1.31-.41.05,0,.1-.02.13-.06,0,0,.24-.31.89-.45,1.05-.22,1.92-.12,1.93-.12.03,0,.07,0,.09-.02h.02c.46-.32,1.26-.49,2.39-.54,1.18-.05,1.79.09,1.79.09.03,0,.07,0,.1-.01.1-.05,1.13-.37,2.77-.29.91.04,2.15.22,2.16.23,0,0,1.24-.18,2.16-.23,1.64-.08,2.67.24,2.77.29.03.02.07.02.1.01,0,0,.62-.15,1.79-.09,1.13.05,1.94.23,2.39.53h.02s.06.04.09.03c0,0,.88-.1,1.93.12.65.13.89.44.89.45.03.04.08.06.13.06.01,0,1-.08,1.31.41.03.04.07.07.12.07.03,0,.05,0,.07-.02.07-.04.09-.13.04-.19Z"/>
  <path class="cls-2" d="M108.1,67.74c-.09-.31-.52-.44-.52-.44v-.09s.14-.05.14-.28-.16-.27-.16-.27v-.11s.43-.17.43-.48c0-.45-.43-.5-.43-.5v-.1c.08-.03.2-.13.2-.29s-.13-.22-.13-.22c0,0,0-.06,0-.17.17-.07.26-.13.36-.49.1-.36-.25-.65-.35-.79-.1-.14-.04-.48-.04-.48,0,0,.15-.11.15-.29s-.14-.27-.14-.27v-.16c.23-.03.38-.19.38-.52s-.38-.4-.38-.4v-.27s.62-.12.52-.83c-.1-.69-.81-.81-.81-.81,0,0-.72.13-.81.81-.1.72.53.83.53.83v.27s-.39.08-.39.4.15.49.39.52v.16s-.15.09-.15.27.15.29.15.29c0,0,.05.34-.04.48-.1.13-.45.43-.35.79.1.36.19.42.36.49,0,.11,0,.17,0,.17,0,0-.13.06-.13.22s.12.26.2.29v.1s-.42.04-.42.5c0,.3.44.48.44.48v.11s-.17.05-.17.27.16.28.16.28v.09s-.45.13-.54.44c-.09.31.04.63.09.72.38-.11.71-.08.71-.08,0,0,.33-.03.71.08.05-.09.18-.41.09-.72M107.21,60.8s-.49-.03-.51-.44c-.01-.41.32-.6.32-.6,0,0,.02.34,0,.47-.02.13-.06.18-.04.27.02.09.12.13.23.15v.16h0ZM107.41,60.8v-.16c.11-.02.21-.05.23-.15.02-.09-.02-.15-.04-.27-.02-.13,0-.47,0-.47,0,0,.33.19.32.6s-.51.44-.51.44"/>
  <path class="cls-2" d="M119.71,93.69c.47.07.67.29.68.31v-.75s-.2-.24-.68-.31c-.28-.04-.57-.05-.77-.04v.75c.2,0,.49,0,.77.05"/>
  <path class="cls-2" d="M120.39,96.6s-.11-.1-.56-.19c-.28-.05-.65-.07-.88-.08v21.24h1.45v-21.05.07Z"/>
  <path class="cls-2" d="M119.83,96.27c.45.09.56.19.56.19v-2.26s-.2-.24-.69-.31c-.28-.04-.57-.05-.76-.04v2.35c.24,0,.61.02.89.08Z"/>
  <path class="cls-2" d="M115.78,117.58v-21.96c-.09-.04-.54-.2-1.44-.27-.78-.06-1.82,0-2.25.03v22.2h3.69Z"/>
  <path class="cls-2" d="M114.56,92.65c.94.07,1.17.28,1.22.38v-.75c-.05-.1-.28-.31-1.22-.38-1.09-.08-1.94,0-2.47.05v.75c.53-.06,1.38-.13,2.47-.06"/>
  <path class="cls-2" d="M114.34,95.21c.9.07,1.35.23,1.44.27v-2.26c-.05-.1-.28-.31-1.22-.38-1.09-.08-1.94,0-2.47.05v2.34c.43-.03,1.46-.09,2.25-.03"/>
  <path class="cls-2" d="M117.92,93.07c.53.06.7.21.76.29v-.75c-.05-.08-.23-.24-.76-.29-.5-.05-1.42-.03-1.87,0v.75c.45-.02,1.37-.04,1.87,0"/>
  <path class="cls-2" d="M118.68,117.58v-21.55c-.1-.04-.49-.19-1.19-.25-.55-.05-1.11-.05-1.43-.04v21.84h2.63Z"/>
  <path class="cls-2" d="M117.48,95.63c.7.06,1.1.21,1.19.25v-2.32c-.06-.08-.23-.23-.76-.29-.5-.05-1.42-.03-1.87,0v2.34c.32,0,.89-.01,1.43.04"/>
  <path class="cls-2" d="M97.13,95.78c-.75.07-1.15.23-1.21.26v21.55h2.6v-21.84c-.32,0-.87,0-1.39.04Z"/>
  <path class="cls-2" d="M96.81,92.35c-.62.1-.85.37-.89.43v.75c.04-.06.27-.33.89-.43.36-.06,1.25-.04,1.71-.03v-.75c-.46-.01-1.36-.03-1.71.03"/>
  <path class="cls-2" d="M96.81,93.29c-.62.1-.85.37-.89.43v2.17c.06-.03.46-.19,1.21-.26.52-.05,1.07-.05,1.39-.04v-2.33c-.46-.01-1.36-.03-1.71.03Z"/>
  <path class="cls-2" d="M109.65,92.43c1.28,0,1.97.22,2.18.29v-.75c-.21-.08-.9-.28-2.18-.29-1.21,0-1.94.13-2.21.19v.75c.28-.06,1.01-.2,2.21-.19Z"/>
  <path class="cls-2" d="M104.89,95.14c-1.19,0-1.91.18-2.11.24v22.2h4.4v-22.28c-.37-.04-1.48-.16-2.29-.16Z"/>
  <path class="cls-2" d="M104.97,91.68c-1.32,0-2.01.23-2.19.3v.75c.19-.07.88-.29,2.19-.3,1.2,0,1.93.13,2.21.19v-.75c-.28-.07-1.01-.2-2.21-.19Z"/>
  <path class="cls-2" d="M111.82,117.58v-22.21c-.22-.06-.93-.24-2.09-.23-.82,0-1.93.12-2.3.16v22.28h4.39Z"/>
  <path class="cls-2" d="M109.73,95c1.16,0,1.87.17,2.09.24v-2.32c-.21-.08-.9-.28-2.18-.29-1.21,0-1.94.13-2.21.19v2.34c.37-.04,1.48-.16,2.3-.16Z"/>
  <path class="cls-2" d="M104.97,92.63c-1.32,0-2.01.23-2.19.3v2.31c.2-.06.92-.24,2.11-.24.81,0,1.92.12,2.29.16v-2.34c-.28-.06-1.01-.2-2.21-.19"/>
  <path class="cls-2" d="M94.9,93.91c-.48.07-.68.29-.68.29v2.26s.11-.1.56-.19c.27-.05.61-.07.84-.08v-2.35c-.2,0-.47.02-.73.06"/>
  <path class="cls-2" d="M100.28,95.36c-1.01.07-1.46.28-1.46.28v21.95h3.66v-22.2c-.45-.03-1.45-.08-2.21-.03Z"/>
  <path class="cls-2" d="M100.05,91.95c-1.19.09-1.23.35-1.23.37v.75s0-.28,1.23-.37c1.06-.08,1.9-.05,2.44,0v-.75c-.54-.05-1.38-.07-2.44,0Z"/>
  <path class="cls-2" d="M100.05,92.9c-1.23.09-1.23.37-1.23.37v2.33-.12s.45-.2,1.46-.28c.76-.05,1.76,0,2.21.03v-2.34c-.54-.05-1.38-.07-2.44,0"/>
  <path class="cls-2" d="M94.9,92.96c-.49.08-.68.29-.68.29v.75s.19-.22.68-.29c.26-.04.53-.05.73-.06v-.75c-.2,0-.47.02-.73.06Z"/>
  <path class="cls-2" d="M94.79,96.42c-.45.09-.56.19-.56.19v20.98h1.41v-21.24c-.24,0-.58.03-.84.08Z"/>
</svg>