<?xml version="1.0" encoding="UTF-8"?>
<svg id="Layer_1" data-name="Layer 1" xmlns="http://www.w3.org/2000/svg" viewBox="0 0 680.03 676.11">
  <g>
    <path d="M144.5,24.51l-24.5,24.5H49.5v70.5l-24.7,24.7L0,169.01l24.8,24.8,24.7,24.7v70.5h70.5l24.5,24.5c13.5,13.5,24.9,24.5,25.5,24.5s12-11,25.5-24.5l24.5-24.5h70.5v-70.5l24.7-24.7,24.8-24.8-24.8-24.8-24.7-24.7V49.01h-70.5l-24.5-24.5C182,11.01,170.6,0,170,0s-12,11-25.5,24.5ZM181.5,37.51l11.5,11.5h-46l11.5-11.5,11.5-11.5,11.5,11.5ZM271.5,169.01v101H68.5V68.01h203v101ZM49.5,168.71v21.8l-11-11-11-11,10.7-10.7c5.9-6,10.9-10.8,11-10.8.2,0,.3,9.8.3,21.7ZM301.7,180.21l-11.2,11.3v-45l11.2,11.3,11.3,11.2-11.3,11.2ZM192.5,289.31c0,.1-5.1,5.3-11.3,11.5l-11.2,11.2-11.5-11.5-11.5-11.5h22.8c12.5,0,22.7.1,22.7.3Z"/>
    <path d="M77.5,106.21v30.2l5-10c10.2-20.4,26.1-35.7,48.1-46.4l8.3-4h-61.4v30.2Z"/>
    <path d="M209.5,80.31c22.9,11.5,38.8,27.2,48.5,48l3.4,7.2.1-29.8v-29.7h-60.4l8.4,4.3Z"/>
    <path d="M158.3,81.11c-15.6,2.3-31.1,8.8-43.3,18.2-19.6,15-32.6,39.8-34.2,65.3-1.5,24,7.1,48.1,23.6,65.6,12.1,12.9,24,20.3,40.8,25.5,8,2.4,10.3,2.7,24.8,2.7s16.8-.3,24.8-2.7c16.8-5.2,28.7-12.6,40.8-25.5,20.5-21.9,28.4-53,21-82.7-2.8-11-10.8-26.4-18.3-35.4-19.4-23-51.1-35.3-80-31ZM194,98.41c11.6,3.9,20.9,9.8,29.5,18.5,11,11.3,17.4,23.1,20.7,38.4,1.8,8.7,1.3,25.2-1.2,34.2-5.4,20.2-21,38.9-39.8,47.9-9.8,4.8-17.4,6.6-29.2,7.3-33.4,1.9-63.8-18.7-75.1-50.7-3.5-10.1-4.5-30-2-41.3,5.8-26,27.7-48.7,54-55.8,5.8-1.5,9.7-1.8,21.1-1.6,12.1.3,15.1.7,22,3.1Z"/>
    <path d="M76.5,232.71v30.3h61.4l-8.3-4c-22.7-11-38.6-26.5-48.7-47.5l-4.4-9v30.2Z"/>
    <path d="M260,210.71c-8.9,19.9-26.3,37.3-47.9,47.8l-9.1,4.5h60.5v-29.5c0-16.2-.1-29.5-.2-29.5-.2,0-1.6,3.1-3.3,6.7Z"/>
  </g>
  <g>
    <path d="M484.53,24.5l-24.5,24.5h-70.5v70.5l-24.7,24.7-24.8,24.8,24.8,24.8,24.7,24.7v70.5h70.5l24.5,24.5c13.5,13.5,24.9,24.5,25.5,24.5s12-11,25.5-24.5l24.5-24.5h70.5v-70.5l24.7-24.7,24.8-24.8-24.8-24.8-24.7-24.7V49h-70.5l-24.5-24.5c-13.5-13.5-24.9-24.5-25.5-24.5s-12,11-25.5,24.5ZM521.53,37.5l11.5,11.5h-46l11.5-11.5,11.5-11.5,11.5,11.5ZM611.53,169v101h-203V68h203v101ZM389.53,168.7v21.8l-11-11-11-11,10.7-10.7c5.9-6,10.9-10.8,11-10.8.2,0,.3,9.8.3,21.7ZM641.73,180.2l-11.2,11.3v-45l11.2,11.3,11.3,11.2-11.3,11.2ZM532.53,289.3c0,.1-5.1,5.3-11.3,11.5l-11.2,11.2-11.5-11.5-11.5-11.5h22.8c12.5,0,22.7.1,22.7.3Z"/>
    <path d="M417.53,106.2v30.2l5-10c10.2-20.4,26.1-35.7,48.1-46.4l8.3-4h-61.4v30.2Z"/>
    <path d="M549.53,80.3c22.9,11.5,38.8,27.2,48.5,48l3.4,7.2.1-29.8v-29.7h-60.4l8.4,4.3Z"/>
    <path d="M498.33,81.1c-15.6,2.3-31.1,8.8-43.3,18.2-19.6,15-32.6,39.8-34.2,65.3-1.5,24,7.1,48.1,23.6,65.6,12.1,12.9,24,20.3,40.8,25.5,8,2.4,10.3,2.7,24.8,2.7s16.8-.3,24.8-2.7c16.8-5.2,28.7-12.6,40.8-25.5,20.5-21.9,28.4-53,21-82.7-2.8-11-10.8-26.4-18.3-35.4-19.4-23-51.1-35.3-80-31ZM534.03,98.4c11.6,3.9,20.9,9.8,29.5,18.5,11,11.3,17.4,23.1,20.7,38.4,1.8,8.7,1.3,25.2-1.2,34.2-5.4,20.2-21,38.9-39.8,47.9-9.8,4.8-17.4,6.6-29.2,7.3-33.4,1.9-63.8-18.7-75.1-50.7-3.5-10.1-4.5-30-2-41.3,5.8-26,27.7-48.7,54-55.8,5.8-1.5,9.7-1.8,21.1-1.6,12.1.3,15.1.7,22,3.1Z"/>
    <path d="M416.53,232.7v30.3h61.4l-8.3-4c-22.7-11-38.6-26.5-48.7-47.5l-4.4-9v30.2Z"/>
    <path d="M600.03,210.7c-8.9,19.9-26.3,37.3-47.9,47.8l-9.1,4.5h60.5v-29.5c0-16.2-.1-29.5-.2-29.5-.2,0-1.6,3.1-3.3,6.7Z"/>
  </g>
  <g>
    <path d="M144.5,362.61l-24.5,24.5H49.5v70.5l-24.7,24.7L0,507.11l24.8,24.8,24.7,24.7v70.5h70.5l24.5,24.5c13.5,13.5,24.9,24.5,25.5,24.5s12-11,25.5-24.5l24.5-24.5h70.5v-70.5l24.7-24.7,24.8-24.8-24.8-24.8-24.7-24.7v-70.5h-70.5l-24.5-24.5c-13.5-13.5-24.9-24.5-25.5-24.5s-12,11-25.5,24.5ZM181.5,375.61l11.5,11.5h-46l11.5-11.5,11.5-11.5s5.2,5.2,11.5,11.5ZM271.5,507.11v101H68.5v-202h203v101ZM49.5,506.81v21.8l-11-11-11-11,10.7-10.7c5.9-6,10.9-10.8,11-10.8.2,0,.3,9.8.3,21.7ZM301.7,518.31l-11.2,11.3v-45l11.2,11.3,11.3,11.2-11.3,11.2ZM192.5,627.41c0,.1-5.1,5.3-11.3,11.5l-11.2,11.2-11.5-11.5-11.5-11.5h22.8c12.5,0,22.7.1,22.7.3Z"/>
    <path d="M77.5,444.31v30.2l5-10c10.2-20.4,26.1-35.7,48.1-46.4l8.3-4h-61.4v30.2Z"/>
    <path d="M209.5,418.41c22.9,11.5,38.8,27.2,48.5,48l3.4,7.2.1-29.8v-29.7h-60.4l8.4,4.3Z"/>
    <path d="M158.3,419.21c-15.6,2.3-31.1,8.8-43.3,18.2-19.6,15-32.6,39.8-34.2,65.3-1.5,24,7.1,48.1,23.6,65.6,12.1,12.9,24,20.3,40.8,25.5,8,2.4,10.3,2.7,24.8,2.7s16.8-.3,24.8-2.7c16.8-5.2,28.7-12.6,40.8-25.5,20.5-21.9,28.4-53,21-82.7-2.8-11-10.8-26.4-18.3-35.4-19.4-23-51.1-35.3-80-31ZM194,436.51c11.6,3.9,20.9,9.8,29.5,18.5,11,11.3,17.4,23.1,20.7,38.4,1.8,8.7,1.3,25.2-1.2,34.2-5.4,20.2-21,38.9-39.8,47.9-9.8,4.8-17.4,6.6-29.2,7.3-33.4,1.9-63.8-18.7-75.1-50.7-3.5-10.1-4.5-30-2-41.3,5.8-26,27.7-48.7,54-55.8,5.8-1.5,9.7-1.8,21.1-1.6,12.1.3,15.1.7,22,3.1Z"/>
    <path d="M76.5,570.81v30.3h61.4l-8.3-4c-22.7-11-38.6-26.5-48.7-47.5l-4.4-9v30.2Z"/>
    <path d="M260,548.81c-8.9,19.9-26.3,37.3-47.9,47.8l-9.1,4.5h60.5v-29.5c0-16.2-.1-29.5-.2-29.5-.2,0-1.6,3.1-3.3,6.7Z"/>
  </g>
  <g>
    <path d="M484.53,362.61l-24.5,24.5h-70.5v70.5l-24.7,24.7-24.8,24.8,24.8,24.8,24.7,24.7v70.5h70.5l24.5,24.5c13.5,13.5,24.9,24.5,25.5,24.5s12-11,25.5-24.5l24.5-24.5h70.5v-70.5l24.7-24.7,24.8-24.8-24.8-24.8-24.7-24.7v-70.5h-70.5l-24.5-24.5c-13.5-13.5-24.9-24.5-25.5-24.5s-12,11-25.5,24.5ZM521.53,375.61l11.5,11.5h-46l11.5-11.5,11.5-11.5,11.5,11.5ZM611.53,507.11v101h-203v-202h203v101ZM389.53,506.81v21.8l-11-11-11-11,10.7-10.7c5.9-6,10.9-10.8,11-10.8.2,0,.3,9.8.3,21.7ZM641.73,518.31l-11.2,11.3v-45l11.2,11.3,11.3,11.2-11.3,11.2ZM532.53,627.41c0,.1-5.1,5.3-11.3,11.5l-11.2,11.2-11.5-11.5-11.5-11.5h22.8c12.5,0,22.7.1,22.7.3Z"/>
    <path d="M417.53,444.31v30.2l5-10c10.2-20.4,26.1-35.7,48.1-46.4l8.3-4h-61.4v30.2Z"/>
    <path d="M549.53,418.41c22.9,11.5,38.8,27.2,48.5,48l3.4,7.2.1-29.8v-29.7h-60.4l8.4,4.3Z"/>
    <path d="M498.33,419.21c-15.6,2.3-31.1,8.8-43.3,18.2-19.6,15-32.6,39.8-34.2,65.3-1.5,24,7.1,48.1,23.6,65.6,12.1,12.9,24,20.3,40.8,25.5,8,2.4,10.3,2.7,24.8,2.7s16.8-.3,24.8-2.7c16.8-5.2,28.7-12.6,40.8-25.5,20.5-21.9,28.4-53,21-82.7-2.8-11-10.8-26.4-18.3-35.4-19.4-23-51.1-35.3-80-31ZM534.03,436.51c11.6,3.9,20.9,9.8,29.5,18.5,11,11.3,17.4,23.1,20.7,38.4,1.8,8.7,1.3,25.2-1.2,34.2-5.4,20.2-21,38.9-39.8,47.9-9.8,4.8-17.4,6.6-29.2,7.3-33.4,1.9-63.8-18.7-75.1-50.7-3.5-10.1-4.5-30-2-41.3,5.8-26,27.7-48.7,54-55.8,5.8-1.5,9.7-1.8,21.1-1.6,12.1.3,15.1.7,22,3.1Z"/>
    <path d="M416.53,570.81v30.3h61.4l-8.3-4c-22.7-11-38.6-26.5-48.7-47.5l-4.4-9v30.2Z"/>
    <path d="M600.03,548.81c-8.9,19.9-26.3,37.3-47.9,47.8l-9.1,4.5h60.5v-29.5c0-16.2-.1-29.5-.2-29.5-.2,0-1.6,3.1-3.3,6.7Z"/>
  </g>
</svg>