<svg width="84" height="98" viewBox="0 0 84 98" fill="none" xmlns="http://www.w3.org/2000/svg">
<path fill-rule="evenodd" clip-rule="evenodd" d="M18.8239 93.9826C19.3396 93.7578 19.6494 93.2975 19.6494 92.5861V92.4916C19.6494 91.2734 18.7681 90.6907 17.4749 90.6907H15.4692V97.3039H17.5415C18.8347 97.3039 19.716 96.7134 19.716 95.4936V95.41C19.716 94.6784 19.3783 94.2274 18.8254 93.9841M16.7532 91.929H17.4269C17.9147 91.929 18.3732 92.0607 18.3732 92.6326V92.7365C18.3732 93.3456 17.9612 93.4866 17.5399 93.4866H16.7532V91.929ZM18.4398 95.3061C18.4398 95.9524 17.9906 96.0748 17.4935 96.0748H16.7532V94.4893H17.5399C17.9891 94.4893 18.4398 94.6397 18.4398 95.2023V95.3046V95.3061Z" fill="#F1FBF3"/>
<path fill-rule="evenodd" clip-rule="evenodd" d="M21.9014 97.3039H25.575V96.0655H23.1853V94.5653H24.9571V93.4386H23.1853V91.9398H25.575V90.6907H21.9014V97.3039Z" fill="#F1FBF3"/>
<path fill-rule="evenodd" clip-rule="evenodd" d="M29.0456 90.6907H27.7617V97.3039H31.2201V96.0655H29.0456V90.6907Z" fill="#F1FBF3"/>
<path fill-rule="evenodd" clip-rule="evenodd" d="M33.4067 97.3039H37.0804V96.0655H34.6907V94.5653H36.4625V93.4386H34.6907V91.9398H37.0804V90.6907H33.4067V97.3039Z" fill="#F1FBF3"/>
<path fill-rule="evenodd" clip-rule="evenodd" d="M41.4235 90.6907H39.2676V97.3039H41.4235C42.726 97.3039 43.6258 96.4499 43.6258 94.8551V93.1115C43.6258 91.4982 42.726 90.6907 41.4235 90.6907ZM42.3512 94.5374C42.3512 95.8315 41.8912 96.0748 41.2732 96.0748H40.5515V91.929H41.2732C42.1638 91.929 42.3512 92.5381 42.3512 93.251V94.5358V94.5374Z" fill="#F1FBF3"/>
<path fill-rule="evenodd" clip-rule="evenodd" d="M46.8187 89.4059C46.8187 89.0866 46.5567 88.8138 46.2282 88.8138C45.8996 88.8138 45.647 89.0866 45.647 89.4059C45.647 89.7252 45.9011 89.9871 46.2282 89.9871C46.5552 89.9871 46.8187 89.7329 46.8187 89.4059Z" fill="#F1FBF3"/>
<path d="M46.8742 90.6907H45.5894V97.3039H46.8742V90.6907Z" fill="#F1FBF3"/>
<path fill-rule="evenodd" clip-rule="evenodd" d="M50.7762 93.4866L49.6239 90.6907H48.2827L50.1304 94.9218V97.3039H51.4143V94.9218L53.279 90.6907H51.9471L50.7762 93.4866Z" fill="#F1FBF3"/>
<path fill-rule="evenodd" clip-rule="evenodd" d="M55.3003 97.3039H58.974V96.0655H56.5827V94.5653H58.3545V93.4386H56.5827V91.9398H58.974V90.6907H55.3003V97.3039Z" fill="#F1FBF3"/>
<path fill-rule="evenodd" clip-rule="evenodd" d="M62.3519 92.5102C62.3519 92.0127 62.6617 91.7492 63.2053 91.7492C63.7489 91.7492 64.0958 92.0778 64.0958 92.7814H65.3612C65.3612 91.4222 64.4908 90.5682 63.2239 90.5682C61.957 90.5682 61.0773 91.2998 61.0773 92.5102C61.0773 94.8551 64.1609 94.1608 64.1609 95.4177C64.1609 95.9617 63.7675 96.2159 63.2239 96.2159C62.6803 96.2159 62.2683 95.8966 62.2683 95.1279H60.9937C60.9937 96.5444 61.9028 97.417 63.2239 97.417C64.545 97.417 65.4448 96.6653 65.4448 95.4084C65.4448 93.0449 62.3519 93.8229 62.3519 92.5102Z" fill="#F1FBF3"/>
<path fill-rule="evenodd" clip-rule="evenodd" d="M68.4178 89.4059C68.4178 89.0866 68.1559 88.8138 67.8273 88.8138C67.4987 88.8138 67.2461 89.0866 67.2461 89.4059C67.2461 89.7252 67.4987 89.9871 67.8273 89.9871C68.1559 89.9871 68.4178 89.7329 68.4178 89.4059Z" fill="#F1FBF3"/>
<path d="M68.4733 90.6907H67.1885V97.3039H68.4733V90.6907Z" fill="#F1FBF3"/>
<path d="M13.5842 86.2582H9.23531L5.30918 77.9774H3.86882V86.2582H0V66.3334H3.86882V74.529H5.30918L9.23531 66.3334H13.5842L8.64213 76.2245L13.5842 86.2582Z" fill="#F1FBF3"/>
<path d="M21.0151 82.3293H15.2816L14.2098 86.2566H10.2837L16.073 66.3318H20.281L25.9867 86.2566H22.0605L21.0151 82.3293ZM16.0993 78.9661H20.1943L18.1886 71.1658L16.0978 78.9661H16.0993Z" fill="#F1FBF3"/>
<path d="M25.2217 86.2582V66.3334H31.4911C35.4451 66.3334 38.0997 68.9061 38.0997 73.5401V74.1058C38.0997 77.1854 36.7724 79.2498 34.6537 80.2107L37.9866 86.2582H33.7507L31.0962 81.1142H29.0905V86.2582H25.2217ZM29.0905 70.0638V77.4117H31.011C32.7053 77.4117 34.2587 76.677 34.2587 74.0485V73.4828C34.2587 70.7411 32.7626 70.0638 31.011 70.0638H29.0905Z" fill="#F1FBF3"/>
<path d="M47.541 82.3293H41.8074L40.7357 86.2566H36.8096L42.5989 66.3318H46.8069L52.5125 86.2566H48.5864L47.541 82.3293ZM42.6252 78.9661H46.7201L44.716 71.1658L42.6252 78.9661Z" fill="#F1FBF3"/>
<path d="M61.0276 70.0917H56.9048V86.2582H53.0344V70.0917H48.9395V66.3334H61.0276V70.0917Z" fill="#F1FBF3"/>
<path d="M68.6319 82.3293H62.8984L61.8251 86.2566H57.8989L63.6882 66.3318H67.8962L73.6019 86.2566H69.6758L68.6303 82.3293H68.6319ZM63.7161 78.9661H67.811L65.8054 71.1658L63.7146 78.9661H63.7161Z" fill="#F1FBF3"/>
<path d="M74.4523 79.0793L68.8892 66.3334H72.9268L76.4022 74.7552L79.9319 66.3334H83.9416L78.3212 79.0793V86.2582H74.4523V79.0793Z" fill="#F1FBF3"/>
<path d="M42.4733 24.9478C42.4733 24.9478 42.4624 24.9323 42.4144 24.9168C42.402 24.9121 42.385 24.9075 42.3648 24.9044C42.3447 24.8997 42.3184 24.8951 42.2889 24.892C42.2162 24.8827 42.1139 24.8765 41.9715 24.8796C41.829 24.8765 41.7267 24.8827 41.654 24.892C41.6245 24.8966 41.5424 24.9137 41.5285 24.9183C41.4805 24.9354 41.4697 24.9493 41.4697 24.9493L32.3521 42.2533C32.5797 42.1975 32.8012 42.1975 32.9019 42.2022H32.9034L39.7939 28.6566H39.8636L33.1868 41.9976C33.303 41.9372 33.4532 41.8783 33.6453 41.838C34.3391 41.6938 34.9199 41.7295 35.0856 41.7434L40.9136 27.1842H40.988L35.3474 41.6102C35.6122 41.4986 36.0877 41.3668 36.9441 41.3296C37.6117 41.3017 38.0376 41.3544 38.2188 41.3854L41.719 25.6545H41.7887L38.4511 41.3451C38.7717 41.2568 39.4423 41.1282 40.3933 41.1762C40.72 41.1932 41.1041 41.2242 41.4511 41.263C41.6199 41.2831 41.7531 41.2986 41.8506 41.3126L41.9234 25.8281H42.0102L42.0675 41.3157H42.0721C42.1697 41.3017 42.3122 41.2831 42.4965 41.263C42.8434 41.2242 43.2291 41.1917 43.5543 41.1762C44.4789 41.1313 45.1371 41.249 45.467 41.3374L42.1325 25.6545H42.2038L45.7055 41.3901C45.8728 41.3591 46.3065 41.3002 47.005 41.3296C47.8304 41.3653 48.3013 41.4893 48.5708 41.5978L42.9348 27.1842H43.0091L48.8309 41.7279C48.8387 41.7341 48.848 41.7388 48.8542 41.7434C49.0075 41.7295 49.596 41.6907 50.3023 41.8364C50.4649 41.8705 50.5965 41.917 50.7034 41.9666L44.0685 28.655H44.1382L50.9667 42.1309C51.0008 42.1573 51.0271 42.182 51.0457 42.2022C51.1448 42.1975 51.3678 42.1975 51.594 42.2533L42.4764 24.9493L42.4733 24.9478Z" fill="#F1FBF3"/>
<path d="M25.6631 24.4054C27.8902 17.9658 33.0089 14.9126 36.6826 13.51H25.6631V24.4054Z" fill="#F1FBF3"/>
<path d="M58.1811 24.4055V13.5116H47.1616C50.8353 14.9127 55.954 17.9658 58.1811 24.4055Z" fill="#F1FBF3"/>
<path d="M63.1527 21.1972V20.9105V8.77987H50.7455L41.9717 0L33.198 8.77987H20.7892V20.4486V21.1972L12.0186 29.9755L20.7908 38.7554V51.1712H32.896V47.8344H29.5491V30.9891V30.1724C29.5491 30.1724 31.104 19.6784 42.0228 17.5845H42.0569C52.968 19.6815 54.3185 30.1724 54.3185 30.1724V31.0031H54.3232V47.8359H51.0615V51.1728H63.1511V39.1026V38.7554L71.9234 29.9771L63.1511 21.1988L63.1527 21.1972ZM41.9717 4.71928L46.028 8.77832H37.914L41.9717 4.71773V4.71928ZM20.7892 25.9165V34.033L16.733 29.9755L20.7892 25.9165ZM59.8167 47.8344H58.1935V32.8427C58.1935 16.123 42.5649 13.8587 41.9485 13.7766C41.9485 13.7766 41.9361 13.7735 41.933 13.775C41.9299 13.775 41.9191 13.775 41.9191 13.7766C41.3027 13.8587 25.674 16.1246 25.674 32.8427V47.8344H24.1237V12.1167H59.8151V47.8328L59.8167 47.8344ZM63.1527 25.9165L67.2089 29.9755L63.1527 34.0346V25.9165Z" fill="#F1FBF3"/>
<path d="M51.9908 61.3784H31.9513C31.7809 61.3784 31.6431 61.5164 31.6431 61.6868C31.6431 61.8573 31.7809 61.9953 31.9513 61.9953H51.9908C52.1612 61.9953 52.299 61.8573 52.299 61.6868C52.299 61.5164 52.1612 61.3784 51.9908 61.3784Z" fill="#F1FBF3"/>
<path d="M51.8699 42.988C51.8591 42.9694 51.7507 42.8082 51.506 42.7308C51.3155 42.6688 50.9267 42.6254 50.6356 42.6424C50.5659 42.5169 50.4373 42.4347 50.3165 42.3696C50.0795 42.2426 49.1983 42.1775 48.5385 42.1976C48.2443 42.0194 47.6402 41.9078 46.903 41.8954C46.2696 41.8845 45.887 41.9155 45.633 41.9372C45.5664 41.9419 45.5091 41.9465 45.458 41.9496C45.0817 41.8226 44.6108 41.7652 43.8458 41.7528C43.0574 41.7404 42.4178 41.8164 41.9717 41.8861C41.5257 41.8164 40.8876 41.7404 40.0977 41.7528C39.3342 41.7652 38.8634 41.8226 38.487 41.9496C38.4359 41.9465 38.3786 41.9419 38.312 41.9372C38.058 41.9171 37.6739 41.8845 37.042 41.8954C36.3032 41.9062 35.7008 42.0178 35.405 42.1976C34.7452 42.1759 33.8639 42.2426 33.627 42.3696C33.5046 42.4347 33.3776 42.5169 33.3064 42.6424C33.0152 42.6254 32.628 42.6703 32.436 42.7308C32.1913 42.8082 32.0844 42.971 32.072 42.988C32.0302 43.0547 32.055 43.1399 32.1293 43.1771C32.1541 43.1895 32.1789 43.1957 32.2052 43.1957C32.2579 43.1957 32.3121 43.1709 32.3399 43.1244C32.3399 43.1244 32.4004 43.0361 32.5382 42.9927C32.7163 42.9353 33.1515 42.895 33.3854 42.9291C33.469 42.9415 33.548 42.8919 33.5619 42.816C33.5728 42.7633 33.6068 42.7013 33.7819 42.6068C33.9181 42.5339 34.7173 42.4456 35.4437 42.475C35.4809 42.4766 35.518 42.4673 35.5474 42.4456C35.7116 42.3278 36.201 42.1852 37.0451 42.1728C37.6631 42.1635 38.0348 42.193 38.2826 42.2131C38.3678 42.2209 38.439 42.2255 38.5009 42.2286C38.5226 42.2286 38.5459 42.2255 38.566 42.2193C38.9098 42.0969 39.3559 42.0426 40.1024 42.0318C40.8969 42.0194 41.535 42.0984 41.9702 42.1697C42.4069 42.0984 43.0435 42.0194 43.838 42.0318C44.5845 42.0442 45.0306 42.0969 45.3744 42.2193C45.3945 42.2255 45.4162 42.2302 45.4394 42.2286C45.5014 42.2255 45.5742 42.2209 45.6578 42.2131C45.9041 42.193 46.2773 42.1635 46.8953 42.1728C47.7394 42.1852 48.2303 42.3278 48.3945 42.4456C48.4239 42.4673 48.4595 42.4781 48.4967 42.475C49.2231 42.4456 50.0222 42.5339 50.1585 42.6068C50.3335 42.7013 50.3676 42.7618 50.3785 42.816C50.3939 42.8919 50.4714 42.9415 50.555 42.9291C50.7889 42.8935 51.2241 42.9353 51.4022 42.9927C51.5385 43.0361 51.5989 43.1244 51.6004 43.1244C51.6283 43.1694 51.681 43.1957 51.7352 43.1957C51.76 43.1957 51.7878 43.1895 51.8111 43.1771C51.8854 43.1399 51.9117 43.0547 51.8699 42.988Z" fill="#F1FBF3"/>
<path d="M52.1423 42.5727C51.8868 42.1666 51.2347 42.1635 51.0427 42.1713C50.9591 42.0845 50.7345 41.8969 50.2993 41.8071C49.593 41.6598 49.0045 41.6986 48.8512 41.7125C48.6979 41.6118 48.2642 41.3529 47.002 41.2987C46.2291 41.2662 45.7815 41.3421 45.6576 41.3669C45.4671 41.2941 44.7222 41.0864 43.5498 41.1453C43.2245 41.1608 42.8389 41.1933 42.4919 41.2321C42.2333 41.2615 42.0536 41.2832 41.97 41.3018C41.8864 41.2817 41.7052 41.2615 41.4481 41.2321C41.1012 41.1918 40.7155 41.1608 40.3903 41.1453C39.2194 41.0879 38.4729 41.2941 38.2824 41.3669C38.1585 41.3421 37.7109 41.2646 36.9396 41.2987C35.6774 41.3529 35.2437 41.6118 35.0904 41.7125C34.9371 41.6986 34.3485 41.6598 33.6423 41.8071C33.2071 41.8969 32.9841 42.0845 32.8989 42.1713C32.7068 42.1635 32.0532 42.1666 31.7993 42.5727C31.7683 42.6207 31.7838 42.6843 31.8318 42.7153C31.8488 42.7261 31.8674 42.7308 31.886 42.7308C31.9201 42.7308 31.9526 42.7137 31.9727 42.6827C32.2004 42.32 32.9268 42.3805 32.9345 42.3805C32.9717 42.3851 33.0057 42.3681 33.0274 42.3386C33.029 42.3371 33.204 42.1093 33.6841 42.0101C34.4569 41.8504 35.0981 41.9233 35.1043 41.9233C35.1291 41.9264 35.1539 41.9217 35.1725 41.9078L35.188 41.8985C35.524 41.6753 36.1157 41.5436 36.9489 41.5079C37.8147 41.4707 38.2654 41.5777 38.2685 41.5777C38.2932 41.5839 38.318 41.5808 38.3412 41.5684C38.414 41.5312 39.1714 41.2925 40.381 41.3529C41.0547 41.3855 41.9638 41.5172 41.9716 41.5203C41.9778 41.5172 42.8869 41.3855 43.5621 41.3529C44.7717 41.2925 45.5291 41.5296 45.6019 41.5684C45.6236 41.5808 45.6499 41.5839 45.6747 41.5777C45.6793 41.5777 46.1285 41.4692 46.9942 41.5079C47.8275 41.5436 48.4206 41.6753 48.7552 41.8985L48.7691 41.9078C48.7892 41.9217 48.814 41.9264 48.8372 41.9233C48.8434 41.9233 49.4862 41.8504 50.2575 42.0101C50.736 42.1093 50.9126 42.3371 50.9141 42.3386C50.9358 42.3681 50.9699 42.3851 51.0071 42.3805C51.0148 42.3805 51.7412 42.32 51.9689 42.6827C51.989 42.7137 52.0215 42.7308 52.0556 42.7308C52.0742 42.7308 52.0928 42.7261 52.1098 42.7153C52.1594 42.6843 52.1733 42.6207 52.1423 42.5727Z" fill="#F1FBF3"/>
<path d="M42.5563 24.7045C42.4912 24.4735 42.1704 24.3806 42.1704 24.3806L42.1595 24.3124C42.1595 24.3124 42.2742 24.2721 42.2742 24.1078C42.2742 23.9435 42.1564 23.9109 42.1564 23.9109L42.1502 23.8335C42.1502 23.8335 42.4726 23.7064 42.4726 23.4832C42.4726 23.15 42.1595 23.1174 42.1595 23.1174V23.0415C42.2169 23.0182 42.3037 22.9423 42.3037 22.8245C42.3037 22.7067 42.2045 22.6649 42.2045 22.6649C42.2045 22.6649 42.2014 22.6199 42.2014 22.5424C42.3254 22.4928 42.3905 22.4494 42.4649 22.1829C42.5393 21.9148 42.2789 21.7009 42.2076 21.6017C42.1363 21.5009 42.175 21.2514 42.175 21.2514C42.175 21.2514 42.2851 21.1724 42.2851 21.0406C42.2851 20.9089 42.1828 20.8438 42.1828 20.8438L42.175 20.726C42.3533 20.7043 42.4649 20.5834 42.4649 20.3448C42.4649 20.1061 42.1874 20.0503 42.1874 20.0503L42.1781 19.855C42.1781 19.855 42.6431 19.7698 42.5672 19.2413C42.4959 18.736 41.9705 18.643 41.9674 18.6415C41.9658 18.6415 41.4404 18.736 41.3676 19.2413C41.2932 19.7713 41.7566 19.855 41.7566 19.855L41.7473 20.0503C41.7473 20.0503 41.4699 20.1061 41.4699 20.3448C41.4699 20.5834 41.5799 20.7043 41.7597 20.726L41.7519 20.8438C41.7519 20.8438 41.6496 20.9089 41.6496 21.0406C41.6496 21.1724 41.7597 21.2514 41.7597 21.2514C41.7597 21.2514 41.7984 21.5009 41.7271 21.6017C41.6558 21.7009 41.3955 21.9163 41.4699 22.1829C41.5443 22.4494 41.6093 22.4928 41.7333 22.5424C41.7333 22.6199 41.7302 22.6649 41.7302 22.6649C41.7302 22.6649 41.631 22.7083 41.631 22.8245C41.631 22.9407 41.7163 23.0182 41.7752 23.0415V23.1174C41.7752 23.1174 41.4637 23.15 41.4637 23.4832C41.4637 23.7048 41.786 23.8335 41.786 23.8335L41.7798 23.9109C41.7798 23.9109 41.662 23.9466 41.662 24.1078C41.662 24.269 41.7767 24.3124 41.7767 24.3124L41.7659 24.3806C41.7659 24.3806 41.4451 24.4735 41.38 24.7045C41.3149 24.9354 41.4079 25.1679 41.4435 25.2345C41.7256 25.1539 41.9627 25.1725 41.9658 25.1741C41.9674 25.1741 42.206 25.1539 42.4881 25.2345C42.5222 25.1694 42.6183 24.9354 42.5517 24.7045M41.8961 19.5962C41.8961 19.5962 41.5319 19.576 41.521 19.2707C41.5102 18.9654 41.7535 18.829 41.7535 18.829C41.7535 18.829 41.7659 19.0785 41.7535 19.1715C41.7395 19.2645 41.707 19.3048 41.724 19.3715C41.7411 19.4365 41.8139 19.4644 41.8961 19.4784V19.5977V19.5962ZM42.0464 19.5962V19.4768C42.1301 19.4644 42.2029 19.4366 42.2184 19.3699C42.2355 19.3033 42.2014 19.263 42.189 19.17C42.1766 19.077 42.189 18.8275 42.189 18.8275C42.189 18.8275 42.4308 18.9638 42.4215 19.2692C42.4122 19.5745 42.0464 19.5946 42.0464 19.5946" fill="#F1FBF3"/>
<path d="M51.1038 43.8141C51.4463 43.8668 51.5935 44.0295 51.6044 44.0435V43.4933C51.6044 43.4933 51.4587 43.3182 51.1022 43.2624C50.8977 43.2314 50.6838 43.2267 50.5381 43.2298V43.7816C50.6838 43.78 50.8977 43.7831 51.1022 43.8157" fill="#F1FBF3"/>
<path d="M51.6058 45.9575C51.6058 45.9575 51.5237 45.8862 51.1905 45.8211C50.9828 45.7808 50.7131 45.7669 50.5396 45.7622V61.4032H51.6058V45.9079V45.9575Z" fill="#F1FBF3"/>
<path d="M51.1921 45.7126C51.5253 45.7777 51.6075 45.849 51.6075 45.849L51.6028 44.1845C51.6028 44.1845 51.4571 44.0093 51.1007 43.9551C50.8961 43.9241 50.6838 43.921 50.5381 43.9226V45.6553C50.7132 45.6599 50.9844 45.6723 51.1921 45.7126Z" fill="#F1FBF3"/>
<path d="M48.2072 61.4033V45.2353C48.1406 45.209 47.8076 45.0866 47.1478 45.0385C46.5701 44.9967 45.805 45.0385 45.4922 45.0602V61.4033H48.2072Z" fill="#F1FBF3"/>
<path d="M47.3089 43.0438C48.0012 43.0934 48.1669 43.2515 48.2087 43.3228V42.771C48.1685 42.6997 48.0027 42.5416 47.3089 42.4905C46.5082 42.4332 45.884 42.4874 45.4922 42.5308V43.0841C45.884 43.0391 46.5066 42.9849 47.3089 43.0422" fill="#F1FBF3"/>
<path d="M47.1474 44.9315C47.8072 44.9795 48.1402 45.1019 48.2068 45.1283V43.4669C48.1665 43.394 48.0008 43.2375 47.3069 43.1879C46.5062 43.1305 45.8821 43.1848 45.4902 43.2282V44.9532C45.8046 44.9315 46.5682 44.8881 47.1459 44.9315" fill="#F1FBF3"/>
<path d="M49.782 43.3584C50.1692 43.4002 50.2993 43.5165 50.3412 43.5723V43.0205C50.3009 42.9632 50.1708 42.847 49.782 42.8051C49.415 42.7664 48.7351 42.785 48.4067 42.7989V43.3506C48.7351 43.3382 49.4165 43.3181 49.782 43.3568" fill="#F1FBF3"/>
<path d="M50.3412 61.4033V45.5345C50.2684 45.505 49.9787 45.3965 49.463 45.35C49.0603 45.3128 48.6422 45.3159 48.4067 45.3221V61.4033H50.3412Z" fill="#F1FBF3"/>
<path d="M49.4615 45.243C49.9773 45.2895 50.2684 45.398 50.3397 45.4274V43.7164C50.2979 43.6591 50.1678 43.5444 49.7806 43.5025C49.4135 43.4622 48.7321 43.4824 48.4053 43.4963V45.2166C48.6391 45.212 49.0589 45.2089 49.46 45.2445" fill="#F1FBF3"/>
<path d="M34.48 45.35C33.9255 45.3996 33.6313 45.5205 33.5879 45.5391V61.4033H35.5053V45.3205C35.2668 45.3159 34.8656 45.3143 34.48 45.35Z" fill="#F1FBF3"/>
<path d="M34.243 42.8222C33.783 42.8966 33.6189 43.0965 33.5879 43.1384V43.6901C33.6189 43.6467 33.783 43.4483 34.243 43.3739C34.5079 43.3305 35.163 43.3429 35.5053 43.3522V42.8005C35.163 42.7896 34.5063 42.7788 34.243 42.8206" fill="#F1FBF3"/>
<path d="M34.243 43.5165C33.783 43.5909 33.6189 43.7908 33.5879 43.8327V45.4321C33.6297 45.4135 33.924 45.2926 34.48 45.243C34.8656 45.2074 35.2683 45.2089 35.5053 45.2136V43.4948C35.163 43.4855 34.5063 43.4731 34.243 43.5165Z" fill="#F1FBF3"/>
<path d="M43.6922 42.8858C44.6354 42.892 45.1403 43.0454 45.2952 43.1012V42.5495C45.1403 42.4937 44.6354 42.3402 43.6922 42.334C42.8048 42.3294 42.2673 42.4286 42.0645 42.4751V43.0268C42.2673 42.9803 42.8048 42.8796 43.6922 42.8858Z" fill="#F1FBF3"/>
<path d="M40.1872 44.882C39.3091 44.8804 38.7778 45.0168 38.6338 45.0587V61.4033H41.8754V45.0013C41.6012 44.9703 40.7866 44.8835 40.1872 44.882Z" fill="#F1FBF3"/>
<path d="M40.2492 42.334C39.2781 42.3402 38.7716 42.5014 38.6338 42.5541V43.1058C38.7716 43.0532 39.2781 42.8904 40.2492 42.8858C41.1335 42.8811 41.6694 42.9803 41.8754 43.0268V42.4751C41.6709 42.427 41.1351 42.3294 40.2492 42.334Z" fill="#F1FBF3"/>
<path d="M45.2952 61.4032V45.0539C45.1357 45.009 44.6091 44.8788 43.7557 44.8819C43.1548 44.8834 42.337 44.9702 42.0645 45.0012V61.4032H45.2952Z" fill="#F1FBF3"/>
<path d="M43.7542 44.775C44.6076 44.7735 45.1342 44.9021 45.2937 44.9486V43.2438C45.1388 43.1864 44.6339 43.0346 43.6907 43.0284C42.8033 43.0237 42.2659 43.1229 42.063 43.1694V44.8944C42.3356 44.8634 43.1533 44.775 43.7542 44.775Z" fill="#F1FBF3"/>
<path d="M40.2492 43.0283C39.2781 43.0345 38.7716 43.1957 38.6338 43.2499V44.9517C38.7778 44.9098 39.3091 44.7734 40.1872 44.775C40.7866 44.7765 41.6012 44.8633 41.8754 44.8943V43.1678C41.6709 43.1213 41.1335 43.0221 40.2492 43.0268" fill="#F1FBF3"/>
<path d="M32.8359 43.9706C32.4794 44.0248 32.3384 44.186 32.3384 44.186V45.8506C32.3384 45.8506 32.4205 45.7793 32.7537 45.7142C32.949 45.6754 33.2001 45.6615 33.3752 45.6568V43.9303C33.2295 43.9318 33.0281 43.9427 32.8359 43.9721" fill="#F1FBF3"/>
<path d="M36.7939 45.0385C36.0505 45.0927 35.7222 45.2415 35.7222 45.2415V61.4049H38.4201V45.0587C38.0902 45.037 37.3546 44.9967 36.7939 45.0385Z" fill="#F1FBF3"/>
<path d="M36.6251 42.5339C35.7485 42.5975 35.7222 42.7943 35.7222 42.8067V43.3585C35.7222 43.3585 35.7175 43.1508 36.6251 43.0857C37.4072 43.0283 38.0267 43.0485 38.4217 43.0826V42.5308C38.0267 42.4967 37.4072 42.4766 36.6251 42.5339Z" fill="#F1FBF3"/>
<path d="M36.6251 43.2282C35.7175 43.2933 35.7222 43.5025 35.7222 43.5025V45.2213V45.1329C35.7222 45.1329 36.0505 44.9857 36.7955 44.9299C37.3546 44.8896 38.0918 44.9299 38.4217 44.9501V43.2251C38.0267 43.1894 37.4072 43.1708 36.6251 43.2266" fill="#F1FBF3"/>
<path d="M32.8359 43.2763C32.4779 43.3321 32.3384 43.4918 32.3384 43.4918V44.0435C32.3384 44.0435 32.4794 43.8839 32.8359 43.8281C33.0281 43.7986 33.2295 43.7878 33.3752 43.7862V43.2345C33.2295 43.2376 33.0281 43.2469 32.8359 43.2763Z" fill="#F1FBF3"/>
<path d="M32.7523 45.8211C32.4191 45.8862 32.3369 45.9575 32.3369 45.9575V61.4033H33.3738V45.7638C33.1986 45.7684 32.9476 45.7824 32.7523 45.8211Z" fill="#F1FBF3"/>
</svg>
