<svg xmlns="http://www.w3.org/2000/svg" xmlns:v="https://svgstorm.com"
viewBox = "0 0 526 521"
width="526"
height="521">
<g fill="#FFFFFF" fill-opacity="1.00" stroke="None">
<path d="
M 0.00 521.00 
L 526.00 521.00
L 526.00 0.00
L 0.00 0.00
L 0.00 521.00
M 264.00 12.00 
C 291.21 39.93 319.02 68.07 347.08 94.92 C 374.72 95.11 402.36 94.95 430.00 95.00
C 430.00 122.33 430.00 149.67 430.00 177.00 C 453.86 206.32 484.14 232.67 511.00 260.00
C 486.48 285.69 460.74 310.43 435.75 335.75 C 423.90 346.79 432.72 366.28 430.00 381.00 C 430.00 398.00 430.00 415.00 430.00 432.00
C 414.00 432.00 398.00 432.00 382.00 432.00 C 367.06 433.91 349.33 428.01 336.25 435.25 C 312.23 459.87 288.03 484.39 264.00 509.00
C 238.06 486.56 214.34 459.84 189.25 435.75 C 176.66 427.39 158.01 434.22 143.00 432.00 C 126.33 432.00 109.67 432.00 93.00 432.00
C 93.00 415.33 93.00 398.67 93.00 382.00 C 90.78 366.98 97.62 348.38 89.25 335.75 C 64.11 310.93 39.46 285.30 14.00 261.00
C 37.85 235.98 62.93 211.91 87.25 187.25 C 98.96 176.82 90.38 158.09 93.00 144.00 C 93.00 127.67 93.00 111.33 93.00 95.00
C 121.00 95.00 149.00 95.00 177.00 95.00 C 207.77 71.04 233.75 37.11 264.00 12.00 Z"/>
</g>
<g fill="#000000" fill-opacity="1.00" stroke="None">
<path d="
M 264.00 12.00 
C 233.75 37.11 207.77 71.04 177.00 95.00 C 149.00 95.00 121.00 95.00 93.00 95.00
C 93.00 111.33 93.00 127.67 93.00 144.00 C 90.38 158.09 98.96 176.82 87.25 187.25 C 62.93 211.91 37.85 235.98 14.00 261.00
C 39.46 285.30 64.11 310.93 89.25 335.75 C 97.62 348.38 90.78 366.98 93.00 382.00 C 93.00 398.67 93.00 415.33 93.00 432.00
C 109.67 432.00 126.33 432.00 143.00 432.00 C 158.01 434.22 176.66 427.39 189.25 435.75 C 214.34 459.84 238.06 486.56 264.00 509.00
C 288.03 484.39 312.23 459.87 336.25 435.25 C 349.33 428.01 367.06 433.91 382.00 432.00 C 398.00 432.00 414.00 432.00 430.00 432.00
C 430.00 415.00 430.00 398.00 430.00 381.00 C 432.72 366.28 423.90 346.79 435.75 335.75 C 460.74 310.43 486.48 285.69 511.00 260.00
C 484.14 232.67 453.86 206.32 430.00 177.00 C 430.00 149.67 430.00 122.33 430.00 95.00
C 402.36 94.95 374.72 95.11 347.08 94.92 C 319.02 68.07 291.21 39.93 264.00 12.00
M 264.00 21.00 
C 290.55 47.61 316.86 75.90 344.08 100.92 C 370.72 101.11 397.36 100.95 424.00 101.00
C 424.00 127.33 424.00 153.67 424.00 180.00 C 446.69 208.16 476.17 233.69 502.00 260.00
C 478.31 284.85 453.41 308.76 429.25 333.25 C 418.28 344.10 426.59 362.79 424.00 377.00 C 424.00 393.33 424.00 409.67 424.00 426.00
C 408.33 426.00 392.67 426.00 377.00 426.00 C 362.77 427.97 345.43 421.94 333.25 429.25 C 309.94 452.90 285.80 476.04 263.00 500.00
C 238.81 476.98 215.57 452.74 191.75 429.25 C 179.61 421.95 162.22 427.96 148.00 426.00 C 132.00 426.00 116.00 426.00 100.00 426.00
C 100.00 399.67 100.00 373.33 100.00 347.00 C 103.12 335.34 90.98 329.94 84.75 322.25 C 64.91 302.42 45.09 282.58 25.25 262.75 C 23.83 254.54 37.06 248.82 41.75 241.75 C 60.61 221.24 84.00 202.82 99.99 180.99 C 100.01 154.33 99.99 127.66 100.00 101.00
C 127.00 101.00 154.00 101.00 181.00 101.00 C 209.85 76.64 235.17 45.34 264.00 21.00 Z"/>
</g>
<g fill="#FFFFFF" fill-opacity="1.00" stroke="None">
<path d="
M 264.00 21.00 
C 235.17 45.34 209.85 76.64 181.00 101.00 C 154.00 101.00 127.00 101.00 100.00 101.00
C 99.99 127.66 100.01 154.33 99.99 180.99 C 84.00 202.82 60.61 221.24 41.75 241.75 C 37.06 248.82 23.83 254.54 25.25 262.75 C 45.09 282.58 64.91 302.42 84.75 322.25 C 90.98 329.94 103.12 335.34 100.00 347.00 C 100.00 373.33 100.00 399.67 100.00 426.00
C 116.00 426.00 132.00 426.00 148.00 426.00 C 162.22 427.96 179.61 421.95 191.75 429.25 C 215.57 452.74 238.81 476.98 263.00 500.00
C 285.80 476.04 309.94 452.90 333.25 429.25 C 345.43 421.94 362.77 427.97 377.00 426.00 C 392.67 426.00 408.33 426.00 424.00 426.00
C 424.00 409.67 424.00 393.33 424.00 377.00 C 426.59 362.79 418.28 344.10 429.25 333.25 C 453.41 308.76 478.31 284.85 502.00 260.00
C 476.17 233.69 446.69 208.16 424.00 180.00 C 424.00 153.67 424.00 127.33 424.00 101.00
C 397.36 100.95 370.72 101.11 344.08 100.92 C 316.86 75.90 290.55 47.61 264.00 21.00 Z"/>
</g>
</svg>