<svg width="84" height="98" viewBox="0 0 84 98" fill="none" xmlns="http://www.w3.org/2000/svg">
<path fill-rule="evenodd" clip-rule="evenodd" d="M18.8236 93.9825C19.3394 93.7578 19.6491 93.2975 19.6491 92.5861V92.4916C19.6491 91.2734 18.7679 90.6907 17.4746 90.6907H15.469V97.3039H17.5412C18.8345 97.3039 19.7157 96.7134 19.7157 95.4936V95.4099C19.7157 94.6784 19.3781 94.2274 18.8252 93.9841M16.7529 91.929H17.4266C17.9145 91.929 18.3729 92.0607 18.3729 92.6326V92.7365C18.3729 93.3456 17.961 93.4866 17.5397 93.4866H16.7529V91.929ZM18.4395 95.3061C18.4395 95.9524 17.9904 96.0748 17.4932 96.0748H16.7529V94.4893H17.5397C17.9888 94.4893 18.4395 94.6397 18.4395 95.2023V95.3046V95.3061Z" fill="#255944"/>
<path fill-rule="evenodd" clip-rule="evenodd" d="M21.9011 97.3039H25.5748V96.0655H23.1851V94.5653H24.9568V93.4385H23.1851V91.9398H25.5748V90.6907H21.9011V97.3039Z" fill="#255944"/>
<path fill-rule="evenodd" clip-rule="evenodd" d="M29.0456 90.6907H27.7617V97.3039H31.2201V96.0655H29.0456V90.6907Z" fill="#255944"/>
<path fill-rule="evenodd" clip-rule="evenodd" d="M33.407 97.3039H37.0807V96.0655H34.6909V94.5653H36.4627V93.4385H34.6909V91.9398H37.0807V90.6907H33.407V97.3039Z" fill="#255944"/>
<path fill-rule="evenodd" clip-rule="evenodd" d="M41.4235 90.6907H39.2676V97.3039H41.4235C42.726 97.3039 43.6258 96.4499 43.6258 94.8551V93.1115C43.6258 91.4981 42.726 90.6907 41.4235 90.6907ZM42.3512 94.5374C42.3512 95.8315 41.8912 96.0748 41.2732 96.0748H40.5515V91.929H41.2732C42.1638 91.929 42.3512 92.5381 42.3512 93.251V94.5358V94.5374Z" fill="#255944"/>
<path fill-rule="evenodd" clip-rule="evenodd" d="M46.8184 89.4059C46.8184 89.0866 46.5565 88.8138 46.2279 88.8138C45.8994 88.8138 45.6467 89.0866 45.6467 89.4059C45.6467 89.7251 45.9009 89.987 46.2279 89.987C46.5549 89.987 46.8184 89.7329 46.8184 89.4059Z" fill="#255944"/>
<path d="M46.8744 90.6907H45.5896V97.3039H46.8744V90.6907Z" fill="#255944"/>
<path fill-rule="evenodd" clip-rule="evenodd" d="M50.7765 93.4866L49.6242 90.6907H48.283L50.1306 94.9217V97.3039H51.4146V94.9217L53.2793 90.6907H51.9473L50.7765 93.4866Z" fill="#255944"/>
<path fill-rule="evenodd" clip-rule="evenodd" d="M55.3003 97.3039H58.974V96.0655H56.5827V94.5653H58.3545V93.4385H56.5827V91.9398H58.974V90.6907H55.3003V97.3039Z" fill="#255944"/>
<path fill-rule="evenodd" clip-rule="evenodd" d="M62.3519 92.5102C62.3519 92.0127 62.6617 91.7492 63.2053 91.7492C63.7489 91.7492 64.0958 92.0778 64.0958 92.7814H65.3612C65.3612 91.4222 64.4908 90.5682 63.2239 90.5682C61.957 90.5682 61.0773 91.2998 61.0773 92.5102C61.0773 94.8551 64.1609 94.1608 64.1609 95.4177C64.1609 95.9617 63.7675 96.2159 63.2239 96.2159C62.6803 96.2159 62.2683 95.8966 62.2683 95.1279H60.9937C60.9937 96.5444 61.9028 97.417 63.2239 97.417C64.545 97.417 65.4448 96.6653 65.4448 95.4084C65.4448 93.0449 62.3519 93.8229 62.3519 92.5102Z" fill="#255944"/>
<path fill-rule="evenodd" clip-rule="evenodd" d="M68.4178 89.4059C68.4178 89.0866 68.1559 88.8138 67.8273 88.8138C67.4987 88.8138 67.2461 89.0866 67.2461 89.4059C67.2461 89.7251 67.4987 89.987 67.8273 89.987C68.1559 89.987 68.4178 89.7329 68.4178 89.4059Z" fill="#255944"/>
<path d="M68.4735 90.6907H67.1887V97.3039H68.4735V90.6907Z" fill="#255944"/>
<path d="M13.5842 86.2581H9.23531L5.30918 77.9773H3.86882V86.2581H0V66.3333H3.86882V74.5289H5.30918L9.23531 66.3333H13.5842L8.64213 76.2244L13.5842 86.2581Z" fill="#255944"/>
<path d="M21.0154 82.3293H15.2818L14.2101 86.2566H10.2839L16.0732 66.3318H20.2812L25.9869 86.2566H22.0608L21.0154 82.3293ZM16.0996 78.9661H20.1945L18.1889 71.1657L16.098 78.9661H16.0996Z" fill="#255944"/>
<path d="M25.2217 86.2581V66.3333H31.4911C35.4451 66.3333 38.0997 68.9061 38.0997 73.5401V74.1058C38.0997 77.1853 36.7724 79.2497 34.6537 80.2106L37.9866 86.2581H33.7507L31.0962 81.1142H29.0905V86.2581H25.2217ZM29.0905 70.0638V77.4116H31.011C32.7053 77.4116 34.2587 76.677 34.2587 74.0484V73.4828C34.2587 70.7411 32.7626 70.0638 31.011 70.0638H29.0905Z" fill="#255944"/>
<path d="M47.541 82.3293H41.8074L40.7357 86.2566H36.8096L42.5989 66.3318H46.8069L52.5125 86.2566H48.5864L47.541 82.3293ZM42.6252 78.9661H46.7201L44.716 71.1657L42.6252 78.9661Z" fill="#255944"/>
<path d="M61.0276 70.0917H56.9048V86.2581H53.0344V70.0917H48.9395V66.3333H61.0276V70.0917Z" fill="#255944"/>
<path d="M68.6321 82.3293H62.8986L61.8253 86.2566H57.8992L63.6885 66.3318H67.8965L73.6021 86.2566H69.676L68.6306 82.3293H68.6321ZM63.7163 78.9661H67.8113L65.8056 71.1657L63.7148 78.9661H63.7163Z" fill="#255944"/>
<path d="M74.4523 79.0792L68.8892 66.3333H72.9268L76.4022 74.7552L79.9319 66.3333H83.9416L78.3212 79.0792V86.2581H74.4523V79.0792Z" fill="#255944"/>
<path d="M42.4735 24.9478C42.4735 24.9478 42.4627 24.9323 42.4146 24.9168C42.4023 24.9122 42.3852 24.9075 42.3651 24.9044C42.345 24.8998 42.3186 24.8951 42.2892 24.892C42.2164 24.8827 42.1142 24.8765 41.9717 24.8796C41.8292 24.8765 41.727 24.8827 41.6542 24.892C41.6248 24.8967 41.5427 24.9137 41.5288 24.9184C41.4807 24.9354 41.4699 24.9494 41.4699 24.9494L32.3523 42.2534C32.58 42.1976 32.8014 42.1976 32.9021 42.2022H32.9037L39.7941 28.6566H39.8638L33.1871 41.9977C33.3032 41.9372 33.4535 41.8783 33.6455 41.838C34.3394 41.6939 34.9202 41.7295 35.0859 41.7435L40.9139 27.1843H40.9882L35.3476 41.6102C35.6125 41.4986 36.0879 41.3669 36.9444 41.3297C37.6119 41.3018 38.0378 41.3545 38.219 41.3855L41.7192 25.6546H41.7889L38.4513 41.3452C38.7719 41.2568 39.4426 41.1282 40.3935 41.1763C40.7203 41.1933 41.1044 41.2243 41.4513 41.263C41.6201 41.2832 41.7533 41.2987 41.8509 41.3126L41.9237 25.8281H42.0104L42.0677 41.3157H42.0724C42.1699 41.3018 42.3124 41.2832 42.4967 41.263C42.8437 41.2243 43.2293 41.1918 43.5545 41.1763C44.4792 41.1313 45.1374 41.2491 45.4673 41.3374L42.1328 25.6546H42.204L45.7058 41.3901C45.873 41.3591 46.3067 41.3002 47.0052 41.3297C47.8307 41.3653 48.3015 41.4893 48.571 41.5978L42.935 27.1843H43.0094L48.8312 41.728C48.8389 41.7342 48.8482 41.7388 48.8544 41.7435C49.0078 41.7295 49.5963 41.6908 50.3025 41.8365C50.4651 41.8706 50.5968 41.9171 50.7037 41.9667L44.0687 28.6551H44.1384L50.9669 42.131C51.001 42.1573 51.0273 42.1821 51.0459 42.2022C51.1451 42.1976 51.3681 42.1976 51.5942 42.2534L42.4766 24.9494L42.4735 24.9478Z" fill="#255944"/>
<path d="M25.6631 24.4054C27.8902 17.9658 33.0089 14.9126 36.6826 13.51H25.6631V24.4054Z" fill="#255944"/>
<path d="M58.1811 24.4054V13.5115H47.1616C50.8353 14.9126 55.954 17.9658 58.1811 24.4054Z" fill="#255944"/>
<path d="M63.1525 21.1972V20.9105V8.77986H50.7453L41.9715 -3.8147e-06L33.1977 8.77986H20.789V20.4486V21.1972L12.0183 29.9755L20.7905 38.7554V51.1712H32.8957V47.8344H29.5488V30.9891V30.1724C29.5488 30.1724 31.1038 19.6784 42.0226 17.5845H42.0567C52.9677 19.6815 54.3183 30.1724 54.3183 30.1724V31.0031H54.3229V47.8359H51.0612V51.1727H63.1509V39.1026V38.7554L71.9231 29.9771L63.1509 21.1988L63.1525 21.1972ZM41.9715 4.71927L46.0277 8.77831H37.9137L41.9715 4.71772V4.71927ZM20.789 25.9165V34.033L16.7328 29.9755L20.789 25.9165ZM59.8164 47.8344H58.1933V32.8427C58.1933 16.123 42.5647 13.8587 41.9483 13.7766C41.9483 13.7766 41.9359 13.7735 41.9328 13.775C41.9297 13.775 41.9188 13.775 41.9188 13.7766C41.3024 13.8587 25.6738 16.1246 25.6738 32.8427V47.8344H24.1235V12.1167H59.8149V47.8328L59.8164 47.8344ZM63.1525 25.9165L67.2087 29.9755L63.1525 34.0346V25.9165Z" fill="#255944"/>
<path d="M51.9905 61.3785H31.951C31.7807 61.3785 31.6428 61.5164 31.6428 61.6869C31.6428 61.8574 31.7807 61.9953 31.951 61.9953H51.9905C52.1609 61.9953 52.2987 61.8574 52.2987 61.6869C52.2987 61.5164 52.1609 61.3785 51.9905 61.3785Z" fill="#255944"/>
<path d="M51.8699 42.988C51.8591 42.9694 51.7507 42.8082 51.506 42.7307C51.3155 42.6688 50.9267 42.6254 50.6356 42.6424C50.5659 42.5169 50.4373 42.4347 50.3165 42.3696C50.0795 42.2425 49.1983 42.1775 48.5385 42.1976C48.2443 42.0194 47.6402 41.9078 46.903 41.8954C46.2696 41.8845 45.887 41.9155 45.633 41.9372C45.5664 41.9419 45.5091 41.9465 45.458 41.9496C45.0817 41.8225 44.6108 41.7652 43.8458 41.7528C43.0574 41.7404 42.4178 41.8163 41.9717 41.8861C41.5257 41.8163 40.8876 41.7404 40.0977 41.7528C39.3342 41.7652 38.8634 41.8225 38.487 41.9496C38.4359 41.9465 38.3786 41.9419 38.312 41.9372C38.058 41.9171 37.6739 41.8845 37.042 41.8954C36.3032 41.9062 35.7008 42.0178 35.405 42.1976C34.7452 42.1759 33.8639 42.2425 33.627 42.3696C33.5046 42.4347 33.3776 42.5169 33.3064 42.6424C33.0152 42.6254 32.628 42.6703 32.436 42.7307C32.1913 42.8082 32.0844 42.971 32.072 42.988C32.0302 43.0547 32.055 43.1399 32.1293 43.1771C32.1541 43.1895 32.1789 43.1957 32.2052 43.1957C32.2579 43.1957 32.3121 43.1709 32.3399 43.1244C32.3399 43.1244 32.4004 43.0361 32.5382 42.9927C32.7163 42.9353 33.1515 42.895 33.3854 42.9291C33.469 42.9415 33.548 42.8919 33.5619 42.816C33.5728 42.7633 33.6068 42.7013 33.7819 42.6068C33.9181 42.5339 34.7173 42.4456 35.4437 42.475C35.4809 42.4766 35.518 42.4673 35.5474 42.4456C35.7116 42.3278 36.201 42.1852 37.0451 42.1728C37.6631 42.1635 38.0348 42.193 38.2826 42.2131C38.3678 42.2209 38.439 42.2255 38.5009 42.2286C38.5226 42.2286 38.5459 42.2255 38.566 42.2193C38.9098 42.0969 39.3559 42.0426 40.1024 42.0318C40.8969 42.0194 41.535 42.0984 41.9702 42.1697C42.4069 42.0984 43.0435 42.0194 43.838 42.0318C44.5845 42.0442 45.0306 42.0969 45.3744 42.2193C45.3945 42.2255 45.4162 42.2302 45.4394 42.2286C45.5014 42.2255 45.5742 42.2209 45.6578 42.2131C45.9041 42.193 46.2773 42.1635 46.8953 42.1728C47.7394 42.1852 48.2303 42.3278 48.3945 42.4456C48.4239 42.4673 48.4595 42.4781 48.4967 42.475C49.2231 42.4456 50.0222 42.5339 50.1585 42.6068C50.3335 42.7013 50.3676 42.7617 50.3785 42.816C50.3939 42.8919 50.4714 42.9415 50.555 42.9291C50.7889 42.8935 51.2241 42.9353 51.4022 42.9927C51.5385 43.0361 51.5989 43.1244 51.6004 43.1244C51.6283 43.1694 51.681 43.1957 51.7352 43.1957C51.76 43.1957 51.7878 43.1895 51.8111 43.1771C51.8854 43.1399 51.9117 43.0547 51.8699 42.988Z" fill="#255944"/>
<path d="M52.1423 42.5727C51.8868 42.1666 51.2347 42.1635 51.0427 42.1712C50.9591 42.0845 50.7345 41.8969 50.2993 41.807C49.593 41.6598 49.0045 41.6985 48.8512 41.7125C48.6979 41.6118 48.2642 41.3529 47.002 41.2987C46.2291 41.2661 45.7815 41.3421 45.6576 41.3669C45.4671 41.294 44.7222 41.0864 43.5498 41.1453C43.2245 41.1608 42.8389 41.1933 42.4919 41.232C42.2333 41.2615 42.0536 41.2832 41.97 41.3018C41.8864 41.2816 41.7052 41.2615 41.4481 41.232C41.1012 41.1917 40.7155 41.1608 40.3903 41.1453C39.2194 41.0879 38.4729 41.294 38.2824 41.3669C38.1585 41.3421 37.7109 41.2646 36.9396 41.2987C35.6774 41.3529 35.2437 41.6118 35.0904 41.7125C34.9371 41.6985 34.3485 41.6598 33.6423 41.807C33.2071 41.8969 32.9841 42.0845 32.8989 42.1712C32.7068 42.1635 32.0532 42.1666 31.7993 42.5727C31.7683 42.6207 31.7838 42.6842 31.8318 42.7152C31.8488 42.7261 31.8674 42.7307 31.886 42.7307C31.9201 42.7307 31.9526 42.7137 31.9727 42.6827C32.2004 42.32 32.9268 42.3805 32.9345 42.3805C32.9717 42.3851 33.0057 42.3681 33.0274 42.3386C33.029 42.3371 33.204 42.1093 33.6841 42.0101C34.4569 41.8504 35.0981 41.9233 35.1043 41.9233C35.1291 41.9264 35.1539 41.9217 35.1725 41.9078L35.188 41.8985C35.524 41.6753 36.1157 41.5436 36.9489 41.5079C37.8147 41.4707 38.2654 41.5777 38.2685 41.5777C38.2932 41.5839 38.318 41.5808 38.3412 41.5684C38.414 41.5312 39.1714 41.2925 40.381 41.3529C41.0547 41.3855 41.9638 41.5172 41.9716 41.5203C41.9778 41.5172 42.8869 41.3855 43.5621 41.3529C44.7717 41.2925 45.5291 41.5296 45.6019 41.5684C45.6236 41.5808 45.6499 41.5839 45.6747 41.5777C45.6793 41.5777 46.1285 41.4692 46.9942 41.5079C47.8275 41.5436 48.4206 41.6753 48.7552 41.8985L48.7691 41.9078C48.7892 41.9217 48.814 41.9264 48.8372 41.9233C48.8434 41.9233 49.4862 41.8504 50.2575 42.0101C50.736 42.1093 50.9126 42.3371 50.9141 42.3386C50.9358 42.3681 50.9699 42.3851 51.0071 42.3805C51.0148 42.3805 51.7412 42.32 51.9689 42.6827C51.989 42.7137 52.0215 42.7307 52.0556 42.7307C52.0742 42.7307 52.0928 42.7261 52.1098 42.7152C52.1594 42.6842 52.1733 42.6207 52.1423 42.5727Z" fill="#255944"/>
<path d="M42.5563 24.7045C42.4912 24.4736 42.1704 24.3806 42.1704 24.3806L42.1595 24.3124C42.1595 24.3124 42.2742 24.2721 42.2742 24.1078C42.2742 23.9435 42.1564 23.911 42.1564 23.911L42.1502 23.8335C42.1502 23.8335 42.4726 23.7064 42.4726 23.4832C42.4726 23.15 42.1595 23.1175 42.1595 23.1175V23.0415C42.2169 23.0183 42.3037 22.9423 42.3037 22.8245C42.3037 22.7068 42.2045 22.6649 42.2045 22.6649C42.2045 22.6649 42.2014 22.62 42.2014 22.5425C42.3254 22.4929 42.3905 22.4495 42.4649 22.1829C42.5393 21.9148 42.2789 21.7009 42.2076 21.6017C42.1363 21.501 42.175 21.2515 42.175 21.2515C42.175 21.2515 42.2851 21.1724 42.2851 21.0407C42.2851 20.9089 42.1828 20.8438 42.1828 20.8438L42.175 20.7261C42.3533 20.7044 42.4649 20.5835 42.4649 20.3448C42.4649 20.1061 42.1874 20.0503 42.1874 20.0503L42.1781 19.855C42.1781 19.855 42.6431 19.7698 42.5672 19.2413C42.4959 18.7361 41.9705 18.6431 41.9674 18.6415C41.9658 18.6415 41.4404 18.7361 41.3676 19.2413C41.2932 19.7714 41.7566 19.855 41.7566 19.855L41.7473 20.0503C41.7473 20.0503 41.4699 20.1061 41.4699 20.3448C41.4699 20.5835 41.5799 20.7044 41.7597 20.7261L41.7519 20.8438C41.7519 20.8438 41.6496 20.9089 41.6496 21.0407C41.6496 21.1724 41.7597 21.2515 41.7597 21.2515C41.7597 21.2515 41.7984 21.501 41.7271 21.6017C41.6558 21.7009 41.3955 21.9163 41.4699 22.1829C41.5443 22.4495 41.6093 22.4929 41.7333 22.5425C41.7333 22.62 41.7302 22.6649 41.7302 22.6649C41.7302 22.6649 41.631 22.7083 41.631 22.8245C41.631 22.9408 41.7163 23.0183 41.7752 23.0415V23.1175C41.7752 23.1175 41.4637 23.15 41.4637 23.4832C41.4637 23.7049 41.786 23.8335 41.786 23.8335L41.7798 23.911C41.7798 23.911 41.662 23.9466 41.662 24.1078C41.662 24.269 41.7767 24.3124 41.7767 24.3124L41.7659 24.3806C41.7659 24.3806 41.4451 24.4736 41.38 24.7045C41.3149 24.9354 41.4079 25.1679 41.4435 25.2346C41.7256 25.154 41.9627 25.1726 41.9658 25.1741C41.9674 25.1741 42.206 25.154 42.4881 25.2346C42.5222 25.1695 42.6183 24.9354 42.5517 24.7045M41.8961 19.5962C41.8961 19.5962 41.5319 19.5761 41.521 19.2708C41.5102 18.9654 41.7535 18.829 41.7535 18.829C41.7535 18.829 41.7659 19.0786 41.7535 19.1716C41.7395 19.2646 41.707 19.3049 41.724 19.3715C41.7411 19.4366 41.8139 19.4645 41.8961 19.4784V19.5978V19.5962ZM42.0464 19.5962V19.4769C42.1301 19.4645 42.2029 19.4366 42.2184 19.3699C42.2355 19.3033 42.2014 19.263 42.189 19.17C42.1766 19.077 42.189 18.8275 42.189 18.8275C42.189 18.8275 42.4308 18.9639 42.4215 19.2692C42.4122 19.5745 42.0464 19.5947 42.0464 19.5947" fill="#255944"/>
<path d="M51.1035 43.8141C51.446 43.8668 51.5933 44.0295 51.6041 44.0435V43.4933C51.6041 43.4933 51.4585 43.3181 51.102 43.2623C50.8974 43.2313 50.6835 43.2267 50.5378 43.2298V43.7815C50.6835 43.78 50.8974 43.7831 51.102 43.8156" fill="#255944"/>
<path d="M51.6056 45.9575C51.6056 45.9575 51.5235 45.8862 51.1902 45.8211C50.9826 45.7808 50.7129 45.7669 50.5393 45.7622V61.4033H51.6056V45.9079V45.9575Z" fill="#255944"/>
<path d="M51.1919 45.7126C51.5251 45.7777 51.6072 45.849 51.6072 45.849L51.6026 44.1845C51.6026 44.1845 51.4569 44.0094 51.1004 43.9551C50.8959 43.9241 50.6835 43.921 50.5378 43.9226V45.6553C50.713 45.6599 50.9842 45.6724 51.1919 45.7126Z" fill="#255944"/>
<path d="M48.2069 61.4033V45.2353C48.1403 45.2089 47.8074 45.0865 47.1476 45.0385C46.5699 44.9966 45.8048 45.0385 45.4919 45.0602V61.4033H48.2069Z" fill="#255944"/>
<path d="M47.3086 43.0438C48.0009 43.0934 48.1667 43.2515 48.2085 43.3228V42.771C48.1682 42.6997 48.0025 42.5417 47.3086 42.4905C46.5079 42.4332 45.8838 42.4874 45.4919 42.5308V43.0841C45.8838 43.0392 46.5064 42.9849 47.3086 43.0423" fill="#255944"/>
<path d="M47.1477 44.9315C47.8074 44.9796 48.1404 45.102 48.207 45.1284V43.4669C48.1668 43.3941 48.001 43.2375 47.3072 43.188C46.5065 43.1306 45.8823 43.1849 45.4905 43.2283V44.9532C45.8049 44.9315 46.5684 44.8881 47.1461 44.9315" fill="#255944"/>
<path d="M49.782 43.3584C50.1692 43.4003 50.2993 43.5165 50.3412 43.5723V43.0206C50.3009 42.9632 50.1708 42.847 49.782 42.8051C49.415 42.7664 48.7351 42.785 48.4067 42.7989V43.3507C48.7351 43.3383 49.4165 43.3181 49.782 43.3569" fill="#255944"/>
<path d="M50.3412 61.4033V45.5344C50.2684 45.505 49.9787 45.3965 49.463 45.35C49.0603 45.3128 48.6422 45.3159 48.4067 45.3221V61.4033H50.3412Z" fill="#255944"/>
<path d="M49.4615 45.243C49.9773 45.2895 50.2684 45.398 50.3397 45.4275V43.7164C50.2979 43.6591 50.1678 43.5444 49.7806 43.5026C49.4135 43.4623 48.7321 43.4824 48.4053 43.4964V45.2167C48.6391 45.212 49.0589 45.2089 49.46 45.2446" fill="#255944"/>
<path d="M34.4802 45.35C33.9258 45.3996 33.6315 45.5205 33.5881 45.5391V61.4033H35.5055V45.3205C35.267 45.3159 34.8659 45.3143 34.4802 45.35Z" fill="#255944"/>
<path d="M34.2433 42.8222C33.7833 42.8966 33.6191 43.0965 33.5881 43.1384V43.6901C33.6191 43.6467 33.7833 43.4483 34.2433 43.3739C34.5081 43.3305 35.1632 43.3429 35.5055 43.3522V42.8005C35.1632 42.7896 34.5066 42.7788 34.2433 42.8206" fill="#255944"/>
<path d="M34.2433 43.5165C33.7833 43.5909 33.6191 43.7908 33.5881 43.8327V45.4321C33.63 45.4135 33.9242 45.2926 34.4802 45.243C34.8659 45.2074 35.2685 45.2089 35.5055 45.2136V43.4948C35.1632 43.4855 34.5066 43.4731 34.2433 43.5165Z" fill="#255944"/>
<path d="M43.6922 42.8857C44.6354 42.8919 45.1403 43.0454 45.2952 43.1012V42.5494C45.1403 42.4936 44.6354 42.3402 43.6922 42.334C42.8048 42.3293 42.2673 42.4285 42.0645 42.475V43.0268C42.2673 42.9803 42.8048 42.8795 43.6922 42.8857Z" fill="#255944"/>
<path d="M40.1875 44.8819C39.3093 44.8804 38.7781 45.0168 38.634 45.0586V61.4033H41.8756V45.0013C41.6015 44.9703 40.7868 44.8835 40.1875 44.8819Z" fill="#255944"/>
<path d="M40.2494 42.334C39.2783 42.3402 38.7719 42.5014 38.634 42.5541V43.1058C38.7719 43.0531 39.2783 42.8904 40.2494 42.8857C41.1337 42.8811 41.6696 42.9803 41.8756 43.0268V42.475C41.6712 42.427 41.1353 42.3293 40.2494 42.334Z" fill="#255944"/>
<path d="M45.2952 61.4033V45.054C45.1357 45.009 44.6091 44.8788 43.7557 44.8819C43.1548 44.8835 42.337 44.9703 42.0645 45.0013V61.4033H45.2952Z" fill="#255944"/>
<path d="M43.7542 44.775C44.6076 44.7734 45.1342 44.9021 45.2937 44.9486V43.2438C45.1388 43.1864 44.6339 43.0345 43.6907 43.0283C42.8033 43.0237 42.2659 43.1229 42.063 43.1694V44.8943C42.3356 44.8633 43.1533 44.775 43.7542 44.775Z" fill="#255944"/>
<path d="M40.2494 43.0283C39.2783 43.0345 38.7719 43.1957 38.634 43.2499V44.9517C38.7781 44.9098 39.3093 44.7734 40.1875 44.775C40.7868 44.7765 41.6015 44.8633 41.8756 44.8943V43.1678C41.6712 43.1213 41.1337 43.0221 40.2494 43.0268" fill="#255944"/>
<path d="M32.8359 43.9706C32.4794 44.0249 32.3384 44.1861 32.3384 44.1861V45.8506C32.3384 45.8506 32.4205 45.7793 32.7537 45.7142C32.949 45.6754 33.2001 45.6615 33.3752 45.6569V43.9303C33.2295 43.9319 33.0281 43.9427 32.8359 43.9722" fill="#255944"/>
<path d="M36.7942 45.0385C36.0508 45.0927 35.7224 45.2415 35.7224 45.2415V61.4048H38.4204V45.0586C38.0905 45.0369 37.3548 44.9966 36.7942 45.0385Z" fill="#255944"/>
<path d="M36.6253 42.5339C35.7487 42.5975 35.7224 42.7943 35.7224 42.8067V43.3584C35.7224 43.3584 35.7178 43.1508 36.6253 43.0857C37.4075 43.0283 38.027 43.0485 38.4219 43.0826V42.5308C38.027 42.4967 37.4075 42.4766 36.6253 42.5339Z" fill="#255944"/>
<path d="M36.6253 43.2282C35.7178 43.2933 35.7224 43.5026 35.7224 43.5026V45.2213V45.133C35.7224 45.133 36.0508 44.9858 36.7957 44.93C37.3548 44.8897 38.092 44.93 38.4219 44.9501V43.2251C38.027 43.1895 37.4075 43.1709 36.6253 43.2267" fill="#255944"/>
<path d="M32.8359 43.2763C32.4779 43.3321 32.3384 43.4917 32.3384 43.4917V44.0435C32.3384 44.0435 32.4794 43.8838 32.8359 43.828C33.0281 43.7986 33.2295 43.7877 33.3752 43.7862V43.2344C33.2295 43.2375 33.0281 43.2468 32.8359 43.2763Z" fill="#255944"/>
<path d="M32.752 45.8211C32.4188 45.8862 32.3367 45.9575 32.3367 45.9575V61.4033H33.3735V45.7638C33.1984 45.7684 32.9473 45.7824 32.752 45.8211Z" fill="#255944"/>
</svg>
