<?xml version="1.0" encoding="UTF-8"?>
<svg id="Layer_2" data-name="Layer 2" xmlns="http://www.w3.org/2000/svg" viewBox="0 0 207.69 256.16">
  <g id="Layer_1-2" data-name="Layer 1">
    <g>
      <path d="M10.57,56.26c5.76-.93,20.45,4.74,27.23,6.3,47.42,10.95,75.1,12.45,123.03,2,8.52-1.86,26.4-8.4,33.54-8.56,12.59-.28,18.64,19.22,7.38,27.48-13.7,10.05-42.28,13.61-58.17,21.83-1.9.98-5.96,3.4-6.56,5.44-1.88,6.4,1.76,30.68,2.93,38.66,4.12,28.05,15.3,63.07,16.85,90.15.66,11.47-7.1,17.81-18.39,16.4-15.11-1.89-15.34-27.83-18.07-39.92-2.81-12.43-5.33-25.86-9.02-37.98-1.77-5.82-3.27-13.03-8-16.98-2.77-.01-8.29,20.32-9.22,23.77-5.01,18.58-6.79,40.18-12.14,57.86-2.74,9.07-7.42,14.23-17.64,13.37-10.87-.92-14.11-8.65-13.37-18.39,2.8-37.18,17.71-77.84,19.86-116.14.44-7.9,1.46-13.97-6.3-17.68-15.3-7.3-47.99-11.13-59.72-21.28C-3.99,74.99.1,57.95,10.57,56.26Z"/>
      <path d="M99.57.32c38.57-5.05,43.5,51.93,7.64,55.63-37.39,3.85-42.47-51.07-7.64-55.63Z"/>
    </g>
  </g>
</svg>