<?xml version="1.0" encoding="UTF-8"?>
<svg id="Layer_2" data-name="Layer 2" xmlns="http://www.w3.org/2000/svg" viewBox="0 0 63.41 66.16">
  <defs>
    <style>
      .cls-1 {
        fill: #f90000;
      }
    </style>
  </defs>
  <g id="Layer_1-2" data-name="Layer 1">
    <g>
      <path class="cls-1" d="M26.08,37.84l2.29-2.11c-1.8-1.96-2.88-4.51-3.03-7.18-.17-3.08.87-6.04,2.93-8.34l11.86-13.25c2.06-2.3,4.89-3.67,7.98-3.84,3.09-.16,6.04.87,8.34,2.93s3.66,4.89,3.83,7.97c.17,3.08-.87,6.05-2.94,8.35l-11.86,13.25,2.32,2.07,11.86-13.25c2.62-2.92,3.94-6.69,3.72-10.6-.22-3.91-1.94-7.5-4.86-10.12C55.6,1.13,51.84-.2,47.93.03c-3.91.22-7.51,1.95-10.12,4.87l-11.86,13.25c-2.61,2.92-3.93,6.68-3.71,10.59.19,3.39,1.55,6.62,3.84,9.11Z"/>
      <path class="cls-1" d="M4.88,62.42c2.71,2.43,6.15,3.74,9.76,3.74.28,0,.55,0,.83-.02,3.91-.22,7.51-1.95,10.12-4.87l11.86-13.25c2.61-2.92,3.93-6.68,3.72-10.59-.19-3.38-1.55-6.62-3.84-9.11l-2.29,2.11c1.8,1.96,2.88,4.51,3.03,7.18.17,3.08-.87,6.05-2.93,8.35l-11.86,13.25c-2.06,2.3-4.9,3.67-7.98,3.84-3.07.16-6.04-.87-8.34-2.93-2.3-2.06-3.66-4.89-3.83-7.97-.17-3.08.87-6.05,2.93-8.35l11.86-13.25-2.32-2.07-11.86,13.25C1.13,44.63-.19,48.39.02,52.31c.22,3.91,1.94,7.5,4.86,10.12Z"/>
    </g>
  </g>
</svg>