<?xml version="1.0" encoding="UTF-8"?>
<svg id="Layer_2" data-name="Layer 2" xmlns="http://www.w3.org/2000/svg" viewBox="0 0 457.95 457.95">
  <defs>
    <style>
      .cls-1 {
        fill: #fff;
      }
    </style>
  </defs>
  <g id="Layer_1-2" data-name="Layer 1">
    <path class="cls-1" d="M383.73,457.95c-33.22,0-61.2-23.86-66.97-55.81,15.79-24.8,24.3-53.7,24.3-83.4v-61.03c0-8.15-.86-16.14-2.51-23.87t.02.02s48.3,48.3,97.56,97.56c46.64,46.63,13.51,126.53-52.4,126.53ZM116.88,257.71c0-8.12.9-16.16,2.63-23.98-.04.03-.09.08-.14.13,0,0-48.3,48.3-97.56,97.56-46.64,46.64-13.51,126.53,52.4,126.53,33.22,0,61.21-23.86,66.96-55.81-15.78-24.79-24.3-53.7-24.3-83.4v-61.03h0ZM273.65,77.35l8.16-19.03c8.19-19.12,26.94-31.48,47.75-31.48h0c7.56,0,13.66-6.25,13.4-13.87C342.73,5.63,336.41-.05,329.07,0c-31.37.2-59.56,18.89-71.92,47.75l-11.15,26.01h4.53c8.06,0,15.82,1.26,23.12,3.59ZM128.38,26.83h0c20.81,0,39.56,12.36,47.75,31.48l8.16,19.03c7.3-2.33,15.06-3.59,23.12-3.59h4.53l-11.15-26.01C188.44,18.89,160.25.2,128.88,0c-7.34-.04-13.66,5.62-13.9,12.96-.26,7.62,5.84,13.87,13.4,13.87ZM150.28,359.27h157.39c3.29-9.88,5.38-20.17,6.18-30.66h-169.76c.81,10.48,2.9,20.77,6.18,30.66ZM143.71,301.78h170.53v-30.65h-170.53v30.65ZM144.77,244.29h168.43c-3.53-22.39-15.76-41.86-33.11-54.86,12.01-9.01,19.79-23.36,19.79-39.49,0-27.21-22.13-49.34-49.34-49.34h-43.11c-27.21,0-49.34,22.13-49.34,49.34,0,16.13,7.78,30.48,19.79,39.49-17.36,13.01-29.58,32.5-33.11,54.87ZM175.07,402.82l43.76,50.5c2.55,2.94,6.25,4.63,10.14,4.63s7.59-1.69,10.14-4.63l43.76-50.5c4.56-5.27,8.65-10.86,12.27-16.72h-132.34c3.61,5.86,7.71,11.46,12.27,16.72Z"/>
  </g>
</svg>