<?xml version="1.0" encoding="UTF-8"?>
<svg id="Layer_2" data-name="Layer 2" xmlns="http://www.w3.org/2000/svg" viewBox="0 0 329.33 456.12">
  <g id="Layer_1-2" data-name="Layer 1">
    <g>
      <path d="M264.3,88.03h65.03L241.3,0v65.03c0,12.7,10.3,23,23,23Z"/>
      <path d="M253.64,112.28c-20.21,0-36.59-16.38-36.59-36.59V0H40C17.91,0,0,17.91,0,40v376.12c0,22.09,17.91,40,40,40h249.33c22.09,0,40-17.91,40-40V112.28h-75.7ZM65.33,310.87h75.56c7.85,0,14.22,6.37,14.22,14.22s-6.37,14.22-14.22,14.22h-75.56c-7.85,0-14.22-6.37-14.22-14.22s6.37-14.22,14.22-14.22ZM197.78,383.76c0,7.85-6.37,14.22-14.22,14.22h-118.22c-7.85,0-14.22-6.37-14.22-14.22h0c0-7.85,6.37-14.22,14.22-14.22h118.22c7.85,0,14.22,6.37,14.22,14.22h0Z"/>
    </g>
  </g>
</svg>