<?xml version="1.0" encoding="UTF-8"?>
<svg id="Layer_2" data-name="Layer 2" xmlns="http://www.w3.org/2000/svg" viewBox="0 0 336.51 335.87">
  <g id="Layer_1-2" data-name="Layer 1">
    <g>
      <path d="M132.67,214.33c26.05-1.27,90.13,2.42,107.11,24.66,13.61,17.84-2.5,31.13-18.03,38.17-38.34,17.37-113.27,17.24-151.75.39-12.68-5.55-26.88-14.85-23.09-30.89,5.83-24.7,65.19-31.32,85.77-32.33Z"/>
      <path d="M214.03,62.11c29.9-2.05,67.34-.74,95.44,10.08,29.89,11.52,39.14,34.67,6.37,51.05-36.69,18.34-133.81,19.91-167.04-5.86-15.84-12.28-14.02-27.63,2.11-38.34s43.8-15.61,63.12-16.93Z"/>
      <path d="M81.49.44c27.65-1.77,95.32.97,113.12,25.21,4.01,5.47,6.54,15.75,1.38,21.04-2.22,2.28-32.73,8.87-40.32,12.17-8.26,3.6-21.17,14.95-27.44,15.87-28.91,4.24-91.97.13-115.93-17.69C.88,48.55-4.38,36.48,5.68,24.36,19.44,7.78,60.87,1.76,81.49.44Z"/>
      <path d="M52.52,287.67c3.99-.61,16.57,6.42,21.65,8.01,39.81,12.5,98.56,13.33,138.51,1.28,5.43-1.64,21.48-9.47,24.62-9.4,12.8.28,6.72,19.55-.05,26.1-30.41,29.42-154.8,30-184.35-.65-5.77-5.98-11.48-23.66-.38-25.35Z"/>
      <path d="M139.81,136.84c5.27-5.25,14.03,1.61,19.03,3.31,43.77,14.92,101.55,16.95,146,3.59,9.95-2.99,32.03-17.43,31.6,1.31-.5,21.77-37.87,31.38-54.97,34.36-32.37,5.64-116.58,6.55-138.71-21.87-3.67-4.71-7.57-16.1-2.94-20.71Z"/>
      <path d="M123.45,119.16c-1.38,1.36-12.01,2.8-14.73,2.98-24.72,1.7-76.14-4.44-96.41-19.17-9.49-6.9-20.38-25.41-3.47-29.42,20.78,9.55,44.03,15.67,66.97,17.09,10.92.68,32.45-2.2,41.45.54,1.82.55,4.35,2.36,4.92,4.27s2.84,14.72,2.94,16.86c.08,1.89-.35,5.55-1.67,6.85Z"/>
      <path d="M123.44,165.08c-1.31,1.31-13.24,2.83-16.04,2.99-24.9,1.43-87.82-5.09-103.08-26.95-4.82-6.9-6.86-22.44,4.51-21.65,3.58.25,19.58,8.12,25.69,9.82,12.57,3.5,29.6,6.52,42.59,7.28,10.17.59,32.07-2.1,40.16.52,5.73,1.86,9.75,24.41,6.17,27.98Z"/>
      <path d="M6.63,165.6c4.01-.76,13.24,4.84,18.03,6.38,16.34,5.26,35.28,9.53,52.46,10.53,11.29.66,29.11-1.98,39.14.23,7.19,1.58,8.33,10.33,3.64,14.88-3.52,3.42-23.91,4.69-30.55,6.19-6.87,1.55-17.14,6.55-23.03,7.26-14.35,1.73-53.34-11.65-61.98-24.02-4.01-5.74-7.34-19.64,2.3-21.46Z"/>
      <path d="M325.5,181.42c9.67-1.96,12.09,4.76,10.53,13.2-4.67,25.3-62.09,32.95-82.94,33.71l-28.04-19.23c-4.77-15.44,20.48-10.27,29.27-10.91,20.6-1.49,40.89-5.12,60.41-11.77,3.58-1.22,7.75-4.38,10.78-5Z"/>
      <path d="M325.49,227.35c9.08-1.85,11.8,3.9,10.74,12.07-2.57,19.69-38.44,29.19-54.7,31.91-6.05,1.01-20.28,4.38-23.26-2.31-1.53-3.43,2.08-23.47,5.94-25.51,13.2-2.67,26.62-3.89,39.61-7.63,6.8-1.96,16.32-7.44,21.67-8.53Z"/>
      <path d="M156.25,196.58c-3.45,3.47-16.76,2.9-18.05-4.34-3.86-21.62,29.7-7.36,18.05,4.34Z"/>
    </g>
  </g>
</svg>