<?xml version="1.0" encoding="UTF-8"?>
<svg id="Layer_2" data-name="Layer 2" xmlns="http://www.w3.org/2000/svg" viewBox="0 0 255.18 244.46">
  <g id="Layer_1-2" data-name="Layer 1">
    <path d="M231.18,44.33h-28.43v-20.71c0-13.02-10.59-23.62-23.62-23.62h-103.08c-13.02,0-23.62,10.59-23.62,23.62v20.71h-28.43c-13.25,0-24,10.75-24,24v152.13c0,13.25,10.75,24,24,24h207.18c13.25,0,24-10.75,24-24V68.33c0-13.25-10.75-24-24-24ZM77.96,25.53h99.26v18.8h-99.26v-18.8ZM200.67,96.46H54.51c-5.64,0-10.21-4.57-10.21-10.21s4.57-10.21,10.21-10.21h146.16c5.64,0,10.21,4.57,10.21,10.21s-4.57,10.21-10.21,10.21Z"/>
  </g>
</svg>