<?xml version="1.0" encoding="UTF-8"?>
<svg id="Layer_2" data-name="Layer 2" xmlns="http://www.w3.org/2000/svg" viewBox="0 0 104.22 70.79">
  <defs>
    <style>
      .cls-1 {
        fill: #f90000;
      }
    </style>
  </defs>
  <g id="Layer_1-2" data-name="Layer 1">
    <polygon class="cls-1" points="84.63 39.14 81.7 45.52 76.13 27.61 72.3 27.65 67.39 44.68 57.73 0 53.79 .22 48.07 56.52 41.08 19.61 37.18 19.45 30.68 43 25.67 28.44 22.06 28.07 15.3 39.53 0 39.53 0 43.53 16.44 43.53 18.17 42.55 23.3 33.84 29 50.41 32.82 50.29 38.75 28.81 46.7 70.79 50.66 70.62 56.49 13.19 65.16 53.29 69.03 53.42 74.29 35.17 79.42 51.68 83.15 51.93 87.73 41.98 104.22 41.98 104.22 37.98 86.44 37.98 84.63 39.14"/>
  </g>
</svg>