<?xml version="1.0" encoding="UTF-8"?>
<svg id="Layer_2" data-name="Layer 2" xmlns="http://www.w3.org/2000/svg" viewBox="0 0 256 217.83">
  <g id="Layer_1-2" data-name="Layer 1">
    <g>
      <path d="M212.09,113.25v-20c0-9.88-8.01-17.89-17.89-17.89s-17.89,8.01-17.89,17.89v20h-44.28v28.4h11.34c13.17,0,23.89,10.72,23.89,23.89s-10.72,23.89-23.89,23.89h-11.34v28.4h99.67c13.25,0,24-13.16,24-29.4v-75.17h-43.61Z"/>
      <path d="M44.02,104.58v20c0,9.88,8.01,17.89,17.89,17.89s17.89-8.01,17.89-17.89v-20h43.88v-28.4h-11.34c-13.17,0-23.89-10.72-23.89-23.89s10.72-23.89,23.89-23.89h11.34V0H24C10.75,0,0,13.16,0,29.4v75.17h44.02Z"/>
      <path d="M150.63,149.06c-2.14-.91-4.49-1.41-6.96-1.41h-20v-34.4h-37.95v11.3c0,13.17-10.72,23.89-23.89,23.89s-23.89-10.72-23.89-23.89v-11.3H0v75.17c0,16.24,10.75,29.4,24,29.4h99.67v-34.4h20c2.47,0,4.82-.5,6.96-1.41,6.42-2.72,10.93-9.07,10.93-16.48s-4.5-13.77-10.93-16.48Z"/>
      <path d="M105.37,68.79c2.14.91,4.49,1.41,6.96,1.41h20v34.4h37.95v-11.3c0-13.17,10.72-23.89,23.89-23.89s23.89,10.72,23.89,23.89v11.3h37.95V29.42C256,13.18,245.25.02,232,.02h-99.67v34.4h-20c-2.47,0-4.82.5-6.96,1.41-6.42,2.72-10.93,9.07-10.93,16.48s4.5,13.77,10.93,16.48Z"/>
    </g>
  </g>
</svg>