<?xml version="1.0" encoding="UTF-8"?>
<svg id="Layer_2" data-name="Layer 2" xmlns="http://www.w3.org/2000/svg" viewBox="0 0 453.16 372.34">
  <defs>
    <style>
      .cls-1 {
        fill: none;
        stroke: #646464;
        stroke-miterlimit: 10;
        stroke-width: 13px;
      }
    </style>
  </defs>
  <g id="Layer_1-2" data-name="Layer 1">
    <g>
      <path class="cls-1" d="M10.62,94.16l178.39,67.91c12.19,4.64,25.64,4.76,37.91.34l189.83-68.38c5.55-2,5.66-9.81.17-11.96L233.88,10.27c-12.81-5.03-27.05-5.03-39.86,0L10.56,82.23c-5.44,2.13-5.4,9.85.06,11.92Z"/>
      <path class="cls-1" d="M82.43,121.5v102.16s33.19,42.31,131.31,42.31,127.13-42.31,127.13-42.31v-102.29"/>
      <line class="cls-1" x1="401.69" y1="99.46" x2="401.69" y2="235.34"/>
      <rect class="cls-1" x="368.35" y="249.15" width="66.67" height="66.67" rx="5.24" ry="5.24" transform="translate(-82.1 366.78) rotate(-45)"/>
      <line class="cls-1" x1="401.69" y1="329.23" x2="401.69" y2="372.34"/>
    </g>
  </g>
</svg>