<?xml version="1.0" encoding="UTF-8"?>
<svg id="Layer_2" data-name="Layer 2" xmlns="http://www.w3.org/2000/svg" viewBox="0 0 743.61 743.06">
  <defs>
    <style>
      .cls-1 {
        fill: #111;
      }
    </style>
  </defs>
  <g id="Layer_1-2" data-name="Layer 1">
    <path class="cls-1" d="M741.36,218.34c-1.86-39.55-8.13-66.55-17.27-90.17-9.53-24.44-22.23-45.16-42.91-65.82-20.68-20.67-41.36-33.36-65.84-42.84-23.7-9.19-50.74-15.45-90.32-17.26C485.36.44,472.73,0,371.72,0h.12c-100.98,0-113.65.44-153.31,2.24-39.58,1.81-66.6,8.07-90.24,17.26-24.45,9.49-45.2,22.18-65.86,42.84-20.68,20.65-33.39,41.38-42.91,65.81-9.22,23.63-15.49,50.64-17.27,90.17-1.77,39.63-2.24,52.3-2.24,153.2s.45,113.53,2.25,153.16c1.82,39.55,8.09,66.55,17.27,90.17,9.5,24.44,22.21,45.16,42.88,65.82,20.66,20.67,41.4,33.39,65.84,42.88,23.66,9.19,50.68,15.45,90.26,17.26,39.66,1.8,52.32,2.24,153.29,2.24s113.62-.44,153.28-2.24c39.58-1.81,66.63-8.07,90.29-17.26,24.45-9.49,45.16-22.21,65.82-42.88,20.68-20.65,33.39-41.38,42.91-65.81,9.14-23.63,15.41-50.64,17.27-90.17,1.78-39.63,2.25-52.26,2.25-153.16s-.46-113.56-2.25-153.19ZM674.47,521.53c-1.66,36.22-7.71,55.88-12.8,68.97-6.74,17.34-14.81,29.68-27.82,42.68-13.01,13-25.37,21.05-42.73,27.79-13.09,5.11-32.78,11.15-69.03,12.8-22.07,1-35.44,1.56-60.64,1.86v-220.3h91.84l15.03-81.86h-106.87v-46.03c0-59.25,25.65-84.53,85.77-84.53,8.58,0,19.33.11,28.51.53v-73.67c-16.62-3.27-45.32-6.24-62.46-6.24-105.63,0-152.73,48.13-152.73,156.04v53.89h-68.74v81.86h68.74v220.6c-88.93-.03-101.28-.46-138.94-2.17-36.25-1.67-55.93-7.72-69.04-12.81-17.35-6.73-29.74-14.78-42.76-27.79-13.01-13-21.07-25.36-27.82-42.7-5.09-13.08-11.15-32.74-12.8-68.97-1.78-39.17-2.14-50.93-2.14-150.15s.36-110.92,2.14-150.08c1.66-36.22,7.71-55.88,12.8-68.98,6.74-17.34,14.81-29.72,27.82-42.73,13.01-13,25.41-21.05,42.76-27.8,13.11-5.11,32.79-11.15,69.04-12.81,34.3-1.55,47.59-2.01,116.89-2.09v.09c9.9-.02,20.95,0,33.35,0,99.27,0,111.04.36,150.24,2.14,36.25,1.66,55.93,7.71,69.03,12.79,17.35,6.73,29.72,14.78,42.73,27.79,13.01,13,21.07,25.39,27.82,42.73,5.09,13.08,11.15,32.74,12.8,68.97,1.78,39.17,2.17,50.93,2.17,150.08s-.39,110.92-2.17,150.08Z"/>
  </g>
</svg>