<?xml version="1.0" encoding="UTF-8"?>
<svg id="Layer_2" data-name="Layer 2" xmlns="http://www.w3.org/2000/svg" viewBox="0 0 376.18 355.21">
  <defs>
    <style>
      .cls-1 {
        stroke-width: 13px;
      }

      .cls-1, .cls-2 {
        fill: none;
        stroke: #646464;
        stroke-miterlimit: 10;
      }

      .cls-2 {
        stroke-width: 11.37px;
      }
    </style>
  </defs>
  <g id="Layer_1-2" data-name="Layer 1">
    <g>
      <g>
        <path class="cls-1" d="M180.62,8.38h0c7.58-3.97,16.93-1.47,21.52,5.75l40.27,63.33c6.18,9.72,15.47,17.06,26.35,20.83l89.66,31.07c8.82,3.06,13.43,12.74,10.25,21.51h0c-2.98,8.22-11.78,12.76-20.2,10.42l-66.98-18.57c-3.75-1.04-7.47,1.75-7.52,5.65l-.11,8.54c-.15,12.2,3.18,24.2,9.61,34.57l64.15,103.44c5.7,9.19,2.55,21.27-6.91,26.51h0c-8.66,4.8-19.55,2.11-24.98-6.16l-64.76-98.62c-.81-1.23-2.72-.5-2.5.96l16.53,109.27c1.58,10.44-5.67,20.16-16.13,21.62h0c-10.47,1.46-20.11-5.92-21.44-16.41l-14.79-116.99c-3.26-25.82-3.5-51.93-.72-77.8l1.4-13c.97-8.96-.72-18-4.83-26.02l-34.87-67.84c-4.13-8.04-1.01-17.9,7-22.09Z"/>
        <line class="cls-1" x1="212.15" y1="170.74" x2="271.64" y2="170.74"/>
        <circle class="cls-2" cx="274.92" cy="64.67" r="32"/>
      </g>
      <g>
        <path class="cls-1" d="M195.56,8.38h0c-7.58-3.97-16.93-1.47-21.52,5.75l-40.27,63.33c-6.18,9.72-15.47,17.06-26.35,20.83l-89.66,31.07c-8.82,3.06-13.43,12.74-10.25,21.51h0c2.98,8.22,11.78,12.76,20.2,10.42l66.98-18.57c3.75-1.04,7.47,1.75,7.52,5.65l.11,8.54c.15,12.2-3.18,24.2-9.61,34.57l-64.15,103.44c-5.7,9.19-2.55,21.27,6.91,26.51h0c8.66,4.8,19.55,2.11,24.98-6.16l64.76-98.62c.81-1.23,2.72-.5,2.5.96l-16.53,109.27c-1.58,10.44,5.67,20.16,16.13,21.62h0c10.47,1.46,20.11-5.92,21.44-16.41l14.79-116.99c3.26-25.82,3.5-51.93.72-77.8l-1.4-13c-.97-8.96.72-18,4.83-26.02l21.21-41.25"/>
        <line class="cls-1" x1="164.03" y1="170.74" x2="104.55" y2="170.74"/>
        <circle class="cls-2" cx="101.26" cy="64.67" r="32"/>
      </g>
    </g>
  </g>
</svg>