<?xml version="1.0" encoding="UTF-8"?>
<svg id="Layer_2" data-name="Layer 2" xmlns="http://www.w3.org/2000/svg" viewBox="0 0 248.59 241.29">
  <g id="Layer_1-2" data-name="Layer 1">
    <path d="M224.06,0H24.54C10.99,0,0,10.99,0,24.54v199.45c0,14.3,16.39,22.41,27.75,13.73l42.49-32.44c4.28-3.27,9.51-5.03,14.89-5.03h138.92c13.55,0,24.54-10.99,24.54-24.54V24.54c0-13.55-10.99-24.54-24.54-24.54ZM53.47,43h108.89c5.64,0,10.21,4.57,10.21,10.21s-4.57,10.21-10.21,10.21H53.47c-5.64,0-10.21-4.57-10.21-10.21s4.57-10.21,10.21-10.21ZM53.47,75.84h59.05c5.64,0,10.21,4.57,10.21,10.21s-4.57,10.21-10.21,10.21h-59.05c-5.64,0-10.21-4.57-10.21-10.21s4.57-10.21,10.21-10.21ZM209.83,118.88c0,5.64-4.57,10.21-10.21,10.21H53.47c-5.64,0-10.21-4.57-10.21-10.21h0c0-5.64,4.57-10.21,10.21-10.21h146.16c5.64,0,10.21,4.57,10.21,10.21h0Z"/>
  </g>
</svg>