<?xml version="1.0" encoding="UTF-8"?>
<svg id="Layer_2" data-name="Layer 2" xmlns="http://www.w3.org/2000/svg" viewBox="0 0 993.6 830.78">
  <g id="Layer_1-2" data-name="Layer 1">
    <path d="M81.82,84.77v622.35c0,1.51,5.49,15.95,6.88,18.52,19.82,36.89,76.96,20.61,77.48-21.66l.3-631.93C173.95,28.54,206.65,3.39,249.66,0l660.51.14c48.88,4.08,80.03,33.79,83.43,83.09l-.48,634.83c-6.32,52.98-45.9,96.7-97.74,108.3-265.06,5.88-532.3,5.88-797.33,0C45.13,813.95,5.53,770.01.02,715.55l-.02-555.95c4.5-42.51,38.16-75.8,81.82-74.82ZM363.31,167.28c-13.29,3.06-23.96,12.19-28.84,24.79-6.57,16.97-6.31,80.01-3.96,99.85,3.19,26.89,20.06,39.11,46.16,41.34,40.16,3.43,115.29,3.44,155.44,0,21.86-1.87,43.57-10.71,46.53-35.32,2.41-20.05,2.41-76.04,0-96.09-2.6-21.65-20.24-33.51-40.88-35.33-55.3-4.88-118.35,3.33-174.45.77ZM363.31,415.66c-42.26,11-42.49,69.98-.47,81.02l428.83.18c48.75-7.79,47.38-76.49-2.81-81.86l-425.54.66ZM360.48,582.17c-42.96,15.21-36.36,74.01,7.82,81.2h420.55c50.31-5.39,50.43-75.23,5.39-81.6l-433.77.4Z"/>
  </g>
</svg>