<?xml version="1.0" encoding="UTF-8"?>
<svg id="Layer_2" data-name="Layer 2" xmlns="http://www.w3.org/2000/svg" viewBox="0 0 430.71 404.48">
  <g id="Layer_1-2" data-name="Layer 1">
    <path d="M390.71,70.03h-49.39V28.78c0-15.87-12.91-28.78-28.78-28.78H110.76c-15.87,0-28.78,12.91-28.78,28.78v41.25h-41.98C17.91,70.03,0,87.94,0,110.03v254.44c0,22.09,17.91,40,40,40h350.71c22.09,0,40-17.91,40-40V110.03c0-22.09-17.91-40-40-40ZM119.98,38h183.33v32.03H119.98v-32.03ZM317.87,252.38c0,4.25-3.44,7.69-7.69,7.69h-64.33c-4.25,0-7.69,3.44-7.69,7.69v64.33c0,4.25-3.44,7.69-7.69,7.69h-30.25c-4.25,0-7.69-3.44-7.69-7.69v-64.33c0-4.25-3.44-7.69-7.69-7.69h-64.33c-4.25,0-7.69-3.44-7.69-7.69v-30.25c0-4.25,3.44-7.69,7.69-7.69h64.33c4.25,0,7.69-3.44,7.69-7.69v-64.33c0-4.25,3.44-7.69,7.69-7.69h30.25c4.25,0,7.69,3.44,7.69,7.69v64.33c0,4.25,3.44,7.69,7.69,7.69h64.33c4.25,0,7.69,3.44,7.69,7.69v30.25Z"/>
  </g>
</svg>