<?xml version="1.0" encoding="UTF-8"?>
<svg id="Layer_2" data-name="Layer 2" xmlns="http://www.w3.org/2000/svg" viewBox="0 0 94.06 88.89">
  <defs>
    <style>
      .cls-1 {
        fill: #f90000;
      }
    </style>
  </defs>
  <g id="Layer_1-2" data-name="Layer 1">
    <g>
      <path class="cls-1" d="M44.44,88.89c5.2,0,10.29-.89,15.14-2.65l-1.06-2.92c-4.51,1.63-9.25,2.46-14.08,2.46V3.11c22.79,0,41.33,18.54,41.33,41.33h3.11C88.89,19.94,68.95,0,44.44,0S0,19.94,0,44.44s19.94,44.45,44.44,44.45Z"/>
      <polygon class="cls-1" points="77.28 63.05 77.28 46.27 74.17 46.27 74.17 63.05 57.39 63.05 57.39 66.16 74.17 66.16 74.17 82.94 77.28 82.94 77.28 66.16 94.06 66.16 94.06 63.05 77.28 63.05"/>
    </g>
  </g>
</svg>