<?xml version="1.0" encoding="UTF-8"?>
<svg id="Layer_2" data-name="Layer 2" xmlns="http://www.w3.org/2000/svg" viewBox="0 0 486.52 330.07">
  <g id="Layer_1-2" data-name="Layer 1">
    <path d="M447.11,0H39.41C17.64,0,0,17.64,0,39.41v251.26c0,21.76,17.64,39.41,39.41,39.41h407.7c21.76,0,39.41-17.64,39.41-39.41V39.41c0-21.76-17.64-39.41-39.41-39.41ZM139.63,225.41c0-5.97,4.84-10.81,10.81-10.81h47.63c5.97,0,10.81,4.84,10.81,10.81h0c0,5.97-4.84,10.81-10.81,10.81h-47.63c-5.97,0-10.81-4.84-10.81-10.81h0ZM45.63,109.19c0-5.97,4.84-10.81,10.81-10.81h63.11c5.97,0,10.81,4.84,10.81,10.81v45.04c0,5.97-4.84,10.81-10.81,10.81h-63.11c-5.97,0-10.81-4.84-10.81-10.81v-45.04ZM45.63,225.41c0-5.97,4.84-10.81,10.81-10.81h47.63c5.97,0,10.81,4.84,10.81,10.81h0c0,5.97-4.84,10.81-10.81,10.81h-47.63c-5.97,0-10.81-4.84-10.81-10.81h0ZM228.89,282.67H56.44c-5.97,0-10.81-4.84-10.81-10.81s4.84-10.81,10.81-10.81h172.44c5.97,0,10.81,4.84,10.81,10.81s-4.84,10.81-10.81,10.81ZM303.11,225.41c0,5.97-4.84,10.81-10.81,10.81h-47.63c-5.97,0-10.81-4.84-10.81-10.81h0c0-5.97,4.84-10.81,10.81-10.81h47.63c5.97,0,10.81,4.84,10.81,10.81h0ZM396.44,225.41c0,5.97-4.84,10.81-10.81,10.81h-47.63c-5.97,0-10.81-4.84-10.81-10.81h0c0-5.97,4.84-10.81,10.81-10.81h47.63c5.97,0,10.81,4.84,10.81,10.81h0ZM440.89,72.15c0,5.97-4.84,10.81-10.81,10.81h-112.15c-5.97,0-10.81-4.84-10.81-10.81v-.89c0-5.97,4.84-10.81,10.81-10.81h112.15c5.97,0,10.81,4.84,10.81,10.81v.89Z"/>
  </g>
</svg>