<?xml version="1.0" encoding="UTF-8"?>
<svg id="Layer_2" data-name="Layer 2" xmlns="http://www.w3.org/2000/svg" viewBox="0 0 239.11 179.26">
  <defs>
    <style>
      .cls-1 {
        fill: #fff;
      }
    </style>
  </defs>
  <g id="Layer_1-2" data-name="Layer 1">
    <path d="M220.15,128.26V8.91c0-4.92-3.99-8.91-8.91-8.91H28.76c-4.92,0-8.91,3.99-8.91,8.91v119.26c0,1.44-.35,2.87-1.02,4.15L1.02,166.2c-.67,1.28-1.02,2.7-1.02,4.15h0c0,4.92,3.99,8.91,8.91,8.91h221.29c4.92,0,8.91-3.99,8.91-8.91v-.09c0-1.39-.32-2.76-.95-4l-17.07-34c-.62-1.24-.95-2.61-.95-4Z"/>
    <rect class="cls-1" x="39.7" y="17.78" width="162.37" height="101" rx="2.52" ry="2.52"/>
  </g>
</svg>