<?xml version="1.0" encoding="UTF-8"?>
<svg id="Layer_2" data-name="Layer 2" xmlns="http://www.w3.org/2000/svg" viewBox="0 0 94.67 94.52">
  <defs>
    <style>
      .cls-1 {
        fill: #f90000;
      }
    </style>
  </defs>
  <g id="Layer_1-2" data-name="Layer 1">
    <g>
      <path class="cls-1" d="M76,30.59c0-6.62-5.38-12-12-12H30.67c-6.62,0-12,5.38-12,12v33.33c0,6.62,5.38,12,12,12h33.33c6.62,0,12-5.38,12-12V30.59ZM72,63.93c0,4.41-3.59,8-8,8H30.67c-4.41,0-8-3.59-8-8V30.59c0-4.41,3.59-8,8-8h33.33c4.41,0,8,3.59,8,8v33.33Z"/>
      <polygon class="cls-1" points="18.89 .11 14.89 .11 14.89 14.78 0 14.78 0 18.78 18.89 18.78 18.89 .11"/>
      <polygon class="cls-1" points="80 0 76 0 76 18.89 94.67 18.89 94.67 14.89 80 14.89 80 0"/>
      <polygon class="cls-1" points="0 79.74 14.89 79.74 14.89 94.41 18.89 94.41 18.89 75.74 0 75.74 0 79.74"/>
      <polygon class="cls-1" points="76 94.52 80 94.52 80 79.63 94.67 79.63 94.67 75.63 76 75.63 76 94.52"/>
    </g>
  </g>
</svg>