<?xml version="1.0" encoding="UTF-8"?>
<svg id="Layer_2" data-name="Layer 2" xmlns="http://www.w3.org/2000/svg" viewBox="0 0 243.56 201.21">
  <g id="Layer_1-2" data-name="Layer 1">
    <path d="M219.56,0H24C10.75,0,0,10.75,0,24v153.21c0,13.25,10.75,24,24,24h195.56c13.25,0,24-10.75,24-24V24c0-13.25-10.75-24-24-24ZM184.2,150.56l-12.46,12.46c-3.7,3.7-9.71,3.7-13.41,0l-32.69-32.69c-3.7-3.7-9.71-3.7-13.41,0l-8,8c-4.91,4.91-13.25,3.05-15.62-3.47l-31.43-86.72c-2.74-7.56,4.58-14.89,12.15-12.15l86.72,31.43c6.53,2.37,8.38,10.71,3.47,15.62l-8,8c-3.7,3.7-3.7,9.71,0,13.41l32.69,32.69c3.7,3.7,3.7,9.71,0,13.41Z"/>
  </g>
</svg>