<?xml version="1.0" encoding="UTF-8"?>
<svg id="Layer_2" data-name="Layer 2" xmlns="http://www.w3.org/2000/svg" viewBox="0 0 512 512">
  <g id="Layer_1-2" data-name="Layer 1">
    <path d="M256.3,0C114.9-.16-.16,114.9,0,256.3c.16,140.7,115,255.53,255.7,255.7,141.4.16,256.47-114.9,256.3-256.3C511.84,115,397,.16,256.3,0ZM256,472c-119.11,0-216-96.91-216-216S136.89,40,256,40s216,96.91,216,216-96.89,216-216,216ZM355.54,282.43l-137.34,75.24c-20.22,11.38-45.2-3.25-45.2-26.43v-150.46c0-23.21,24.98-37.81,45.2-26.43l137.34,75.24c20.62,11.59,20.62,41.27,0,52.86v-.03Z"/>
  </g>
</svg>