<?xml version="1.0" encoding="UTF-8"?>
<svg id="Layer_2" data-name="Layer 2" xmlns="http://www.w3.org/2000/svg" viewBox="0 0 214.23 257.93">
  <g id="Layer_1-2" data-name="Layer 1">
    <g>
      <path d="M47.92,125.16c17.14-2.08,19.6,6.29,32.84,12.6,20.14,9.6,37.83,7.76,57.05-2.71,12.71-6.92,13.09-12.48,30.17-9.51,36.47,6.34,46.6,55.84,46.23,86.85-.3,24.94-16.72,42.67-41.53,44.53-42.55,3.19-89.06-2.45-132.02-.05C-1.2,252.18-3.54,217.08,2.44,182.68c4.32-24.86,17.13-54.08,45.49-57.51Z"/>
      <path d="M148.8,106.54C89.51,165.22,2.01,71.82,64.13,16.37c59.16-52.8,141.21,34.18,84.66,90.16Z"/>
    </g>
  </g>
</svg>