<?xml version="1.0" encoding="UTF-8"?>
<svg id="Layer_2" data-name="Layer 2" xmlns="http://www.w3.org/2000/svg" viewBox="0 0 86.22 86.22">
  <defs>
    <style>
      .cls-1 {
        fill: #f90000;
      }
    </style>
  </defs>
  <g id="Layer_1-2" data-name="Layer 1">
    <g>
      <path class="cls-1" d="M82.22,57.28l-12.22-12.22c-2.97-2.97-7.8-2.97-10.77,0l-7.11,7.11c-1.37,1.36-3.75,1.37-5.12,0l-19.46-19.46c-2.92-2.92-7.71-2.96-10.68-.09l-12.86,12.44V12c0-4.41,3.59-8,8-8h31.11V0H12C5.38,0,0,5.38,0,12v62.22c0,6.62,5.38,12,12,12h62.22c6.62,0,12-5.38,12-12v-31.11h-4v14.17ZM74.22,82.22H12c-4.41,0-8-3.59-8-8v-23.6l15.64-15.13c1.41-1.36,3.68-1.34,5.07.04l19.46,19.46c2.97,2.97,7.8,2.97,10.77,0l7.11-7.11c1.41-1.41,3.71-1.41,5.12,0l15.05,15.05v11.28c0,4.41-3.59,8-8,8Z"/>
      <polygon class="cls-1" points="55.41 34.19 68.83 20.77 82.25 34.19 85.08 31.36 71.66 17.94 85.08 4.53 82.25 1.7 68.83 15.12 55.41 1.7 52.59 4.53 66 17.94 52.59 31.36 55.41 34.19"/>
    </g>
  </g>
</svg>