<?xml version="1.0" encoding="UTF-8"?>
<svg id="Layer_2" data-name="Layer 2" xmlns="http://www.w3.org/2000/svg" viewBox="0 0 332.01 374.13">
  <defs>
    <style>
      .cls-1 {
        fill: none;
        stroke: #646464;
        stroke-miterlimit: 10;
        stroke-width: 11.37px;
      }
    </style>
  </defs>
  <g id="Layer_1-2" data-name="Layer 1">
    <g>
      <path class="cls-1" d="M230.58,72.88c-26.35-11.3-56.44-20.32-101.36-11.99C71.74,71.56,13.66,120.38,5.96,201.71c0,0-9.4,100.5,81.78,149.55,85.93,46.22,129.78-25.33,110.71-67.02-14.48-31.66.4-63.65,41.74-71.63"/>
      <path class="cls-1" d="M288.62,201.71c70.15-3.55,28.04-75.02-10.9-104.07"/>
      <circle class="cls-1" cx="63.53" cy="240.37" r="23.78"/>
      <circle class="cls-1" cx="130.06" cy="298.92" r="23.78"/>
      <circle class="cls-1" cx="87.31" cy="152.92" r="23.78"/>
      <circle class="cls-1" cx="166" cy="115.53" r="23.78"/>
      <path class="cls-1" d="M250.11,100h24.3s10.07,72.3,10.07,132.74-9.48,135.7-20.74,135.7-24.89-64-24.89-134.22,11.26-134.22,11.26-134.22Z"/>
      <line class="cls-1" x1="244.18" y1="176.7" x2="278.55" y2="176.7"/>
      <path class="cls-1" d="M261.66,11.12l23.56,39.59c4.87,8.18,6.87,17.83,5.21,27.21-1.91,10.81-8.71,22.09-28.77,22.09s-26.86-11.28-28.77-22.09c-1.66-9.37.35-19.03,5.21-27.21l23.56-39.59Z"/>
    </g>
  </g>
</svg>