<?xml version="1.0" encoding="UTF-8"?>
<svg id="Layer_2" data-name="Layer 2" xmlns="http://www.w3.org/2000/svg" viewBox="0 0 917.83 432.16">
  <defs>
    <style>
      .cls-1 {
        fill: #fff;
      }
    </style>
  </defs>
  <g id="Layer_1-2" data-name="Layer 1">
    <g>
      <path class="cls-1" d="M488.88,207.78c-15.87,0-27.38-1.78-37.5-4.37-2.19-.59-3.97-1.78-3.97-3.96v-19.44c0-2.99,1.39-3.78,3.56-3.78h.61c8.13.6,29.95,2.39,37.68,2.39,13.7,0,17.67-4.37,17.67-13.89,0-5.75-2.78-8.93-13.09-15.08l-27.38-16.27c-18.26-10.91-23.41-23.62-23.41-37.9,0-21.82,12.09-38.68,50.79-38.68,14.48,0,34.51,2.17,42.05,4.36,1.59.59,2.98,1.38,2.98,3.58v20.04c0,1.78-.79,3.37-3.37,3.37h-.4c-5.36-.6-28.57-2.19-42.06-2.19-11.31,0-15.47,3.37-15.47,10.52,0,5.54,2.77,8.13,13.29,13.88l25.4,13.69c20.64,11.11,26.79,24.21,26.79,40.27,0,21.04-13.89,43.46-54.17,43.46"/>
      <path class="cls-1" d="M599.2,202.02c0,2.19-1.59,3.97-3.76,3.97h-26.6c-2.19,0-3.56-1.78-3.56-3.97V62.34c0-2.58,1.19-3.76,3.56-3.76h26.6c2.58,0,3.76,1.19,3.76,3.76v139.68Z"/>
      <path class="cls-1" d="M717.05,81.99c0,2.19-1.78,3.97-3.97,3.97h-40.27c-9.34,0-12.71,3.18-12.71,13.49v17.85h51.39c2.19,0,3.97,1.79,3.97,3.98v18.84c0,2.19-1.78,3.97-3.97,3.97h-51.39v57.94c0,2.18-1.78,3.97-3.97,3.97h-25.79c-2.19,0-3.96-1.79-3.96-3.97v-102.58c0-35.91,22.8-42.46,48.4-42.46,21.42,0,31.55,1.6,38.29,2.59,2.58.39,3.97,1.78,3.97,3.97v18.45Z"/>
      <path class="cls-1" d="M776.17,202.02c0,2.19-1.59,3.97-3.76,3.97h-26.6c-2.18,0-3.56-1.78-3.56-3.97V62.34c0-2.58,1.19-3.76,3.56-3.76h26.6c2.58,0,3.76,1.19,3.76,3.76v139.68Z"/>
      <path class="cls-1" d="M879.14,103.22c0-12.1-9.32-17.66-25.99-17.66-2.99,0-13.1.59-15.48.59v38.09c1.58,0,7.54.4,11.3.4h2.78c20.64,0,27.38-5.35,27.38-18.85v-2.58ZM914.86,205.99h-30.36c-2.18,0-2.97-1.78-3.96-3.97l-26.59-50.2-2.19.2c-4.17,0-10.31-.41-14.08-.41v50.4c0,2.19-1.79,3.97-3.96,3.97h-25.81c-2.19,0-3.96-1.78-3.96-3.97V68.89c0-6.95,2.78-8.53,8.93-9.52,9.12-1.58,26.19-2.58,40.28-2.58,33.91,0,59.72,11.3,59.72,46.42v2.58c0,21.23-11.11,33.93-25.6,39.68l29.95,55.97c.41.79.61,1.58.61,2.17,0,1.59-1,2.38-2.98,2.38"/>
      <path class="cls-1" d="M517.29,263.5c-.65-2.35-.85-3.21-2.78-3.21-1.49,0-2.56,1.07-2.99,3.21l-13.05,59.01h31.87l-13.04-59.01ZM578.24,390.74h-29.94c-2.35,0-3.63-1.5-4.27-3.86l-7.7-35.07h-43.84l-7.7,35.07c-.63,2.35-1.92,3.86-4.27,3.86h-29.94c-2.35,0-3.64-1.07-3.64-3.42,0-.22.22-.43.22-1.07l31.87-132.59c5.13-20.54,20.53-23.73,35.5-23.73s30.16,3.19,35.29,23.73l31.86,132.59c0,.64.22.86.22,1.07,0,2.35-1.29,3.42-3.64,3.42"/>
      <path class="cls-1" d="M706.11,257.94c0,2.35-2.14,4.07-4.49,4.07h-34.64v124.47c0,2.35-1.92,4.26-4.27,4.26h-28.01c-2.36,0-4.28-1.92-4.28-4.26v-124.47h-34.86c-2.35,0-4.28-1.72-4.28-4.07v-22.03c0-2.35,1.93-4.07,4.28-4.07h106.06c2.36,0,4.49,1.72,4.49,4.07v22.03Z"/>
      <path class="cls-1" d="M762.99,386.47c0,2.35-1.7,4.28-4.07,4.28h-28.66c-2.35,0-3.84-1.94-3.84-4.28v-150.55c0-2.78,1.27-4.05,3.84-4.05h28.66c2.79,0,4.07,1.27,4.07,4.05v150.55Z"/>
      <path class="cls-1" d="M916.33,237.2l-50.89,72.28,51.11,76.77c.64.65.86,1.5.86,2.37,0,1.48-1.07,2.13-2.99,2.13h-36.79c-2.56,0-3.64-1.29-4.7-2.99l-43.42-70.57v69.28c0,2.35-1.92,4.28-4.27,4.28h-28.02c-2.35,0-4.26-1.93-4.26-4.28v-150.55c0-2.35,1.92-4.05,4.26-4.05h28.02c2.35,0,4.27,1.71,4.27,4.05v68.01l47.05-69.5c1.07-1.71,2.79-2.56,4.71-2.56h32.72c2.35,0,3.42.85,3.42,2.35,0,.86-.43,1.92-1.07,2.99"/>
      <path class="cls-1" d="M139.84,252.22c20.92-.04,39.44-10.34,50.84-26.13-11.45-15.74-30.02-25.99-50.94-25.94-20.92.04-39.45,10.34-50.85,26.13,11.47,15.73,30.03,25.97,50.95,25.94"/>
      <path class="cls-1" d="M198.16,212.46c2.86-7.18,4.43-15.01,4.42-23.21-.06-31.37-23.2-57.4-53.3-62.01-2.86,7.19-4.43,15.02-4.41,23.22.05,31.36,23.2,57.4,53.28,62.01"/>
      <path class="cls-1" d="M202.71,262.88c-.01-8.19-1.61-16.02-4.49-23.2-30.07,4.72-53.14,30.84-53.07,62.21,0,8.19,1.63,16.01,4.51,23.2,30.05-4.72,53.12-30.84,53.05-62.21"/>
      <path class="cls-1" d="M210.25,189.23c.01,8.33,1.67,16.27,4.64,23.54,7-.79,13.65-2.74,19.75-5.64,2.93-2.04,6.01-3.87,9.24-5.42,16.18-11.42,26.75-30.25,26.71-51.49-.01-8.33-1.66-16.27-4.63-23.54-31.36,3.56-55.77,30.27-55.71,62.55"/>
      <path class="cls-1" d="M273.13,199.9c-9.59.01-18.67,2.2-26.79,6.07-2.93,2.04-6.01,3.86-9.24,5.41-5.72,4.04-10.72,8.99-14.81,14.65,4.1,5.64,9.14,10.58,14.86,14.6,3.23,1.55,6.33,3.36,9.26,5.38,8.15,3.84,17.24,5.99,26.83,5.98,20.92-.06,39.44-10.36,50.85-26.15-11.47-15.73-30.03-25.97-50.95-25.94"/>
      <path class="cls-1" d="M243.97,250.27c-3.23-1.55-6.33-3.36-9.26-5.38-6.13-2.89-12.78-4.82-19.78-5.59-2.94,7.29-4.58,15.25-4.54,23.57.05,32.28,24.56,58.9,55.92,62.35,2.94-7.29,4.57-15.23,4.56-23.57-.04-21.26-10.68-40.04-26.9-51.39"/>
      <path class="cls-1" d="M405.88,335.59l-89.24,43.75-8.65-99,24.26,13.69c9.54-19.32,14.91-41.06,14.91-64.06,0-62.92-40.08-116.48-96.08-136.57l32.16-22.24,21.91-15.15c59.36,35.22,99.13,99.95,99.13,173.97,0,33.2-8.02,64.55-22.2,92.18l23.8,13.44Z"/>
      <path class="cls-1" d="M0,224.63l21.73,10.46,37.14,17.88c-1.2-7.49-1.82-15.17-1.82-23,0-76.3,58.94-138.86,133.77-144.62l.12,27.07,81.74-56.53L190.49,0l.11,28.14C86.06,34.01,2.73,119.28,0,224.63"/>
      <path class="cls-1" d="M298.14,380.96l-3.44-39.37c-25.13,20.87-57.38,33.42-92.59,33.42-51.27,0-96.3-26.6-122.1-66.76l23.21-13.32L13.68,251.83l-7.96,99.06,24.69-14.17c35.69,57.29,99.23,95.44,171.7,95.44,35.68,0,69.18-9.27,98.28-25.48l-2.25-25.71Z"/>
    </g>
  </g>
</svg>