<?xml version="1.0" encoding="UTF-8"?>
<svg id="Layer_2" data-name="Layer 2" xmlns="http://www.w3.org/2000/svg" viewBox="0 0 344.21 344.21">
  <defs>
    <style>
      .cls-1 {
        fill: none;
        stroke: #646464;
        stroke-miterlimit: 10;
        stroke-width: 13px;
      }
    </style>
  </defs>
  <g id="Layer_1-2" data-name="Layer 1">
    <g>
      <circle class="cls-1" cx="172.11" cy="172.11" r="165.61"/>
      <path class="cls-1" d="M166.35,119.69l-49.65,36.07c-3.43,2.49-4.87,6.91-3.56,10.95l18.96,58.37c1.31,4.03,5.07,6.76,9.31,6.76h61.37c4.24,0,8-2.73,9.31-6.76l18.96-58.37c1.31-4.03-.13-8.45-3.56-10.95l-49.65-36.07c-3.43-2.49-8.08-2.49-11.51,0Z"/>
      <line class="cls-1" x1="172.11" y1="114.42" x2="172.11" y2="48.05"/>
      <line class="cls-1" x1="98.43" y1="273.24" x2="133.39" y2="231.84"/>
      <line class="cls-1" x1="211.32" y1="230.57" x2="245.39" y2="275.01"/>
      <line class="cls-1" x1="112.67" y1="160.94" x2="49.84" y2="139.16"/>
      <line class="cls-1" x1="295.62" y1="139.16" x2="231.55" y2="160.94"/>
      <path class="cls-1" d="M107.43,19.61l58.35,25.66c4.04,1.77,8.63,1.77,12.67,0l58.34-25.66"/>
      <path class="cls-1" d="M32.08,83.66l15.08,47.13c1.66,5.17.39,10.84-3.32,14.81L7,185.06"/>
      <path class="cls-1" d="M36.21,263.75l55.37,8.44c4.35.66,8.19,3.2,10.5,6.95l31.32,50.69"/>
      <path class="cls-1" d="M214.88,329.83l26.9-48.31c2.28-4.1,6.35-6.89,10.99-7.55l53.07-7.54"/>
      <path class="cls-1" d="M309.62,82.72l-12.16,49.03c-1.15,4.66-.01,9.58,3.07,13.26l37.19,44.28"/>
    </g>
  </g>
</svg>