<?xml version="1.0" encoding="UTF-8"?>
<svg id="Layer_2" data-name="Layer 2" xmlns="http://www.w3.org/2000/svg" viewBox="0 0 743.61 810.62">
  <defs>
    <style>
      .cls-1 {
        fill: #111;
      }
    </style>
  </defs>
  <g id="Layer_1-2" data-name="Layer 1">
    <path class="cls-1" d="M741.36,285.89c-1.86-39.55-8.13-66.55-17.27-90.17-9.53-24.44-22.23-45.16-42.91-65.82-20.68-20.67-41.36-33.36-65.84-42.84-17.62-6.83-37.08-12.04-62.16-15.01v-34.72c0-20.62-16.71-37.33-37.33-37.33h0c-20.62,0-37.33,16.71-37.33,37.33v30.8c-21.39-.44-50.22-.58-106.72-.58-56.38,0-85.22.14-106.61.57v-30.8c0-20.62-16.71-37.33-37.33-37.33h0c-20.62,0-37.33,16.71-37.33,37.33v34.7c-25.14,2.97-44.61,8.18-62.22,15.03-24.45,9.49-45.2,22.18-65.86,42.84-20.68,20.65-33.39,41.38-42.91,65.81-9.22,23.63-15.49,50.64-17.27,90.17-1.77,39.63-2.24,52.3-2.24,153.2s.45,113.53,2.25,153.16c1.82,39.55,8.09,66.55,17.27,90.17,9.5,24.44,22.21,45.16,42.88,65.82,20.66,20.67,41.4,33.39,65.84,42.88,23.66,9.19,50.68,15.45,90.26,17.26,39.66,1.8,52.32,2.24,153.29,2.24s113.62-.44,153.28-2.24c39.58-1.81,66.63-8.07,90.29-17.26,24.45-9.49,45.16-22.21,65.82-42.88,20.68-20.65,33.39-41.38,42.91-65.81,9.14-23.63,15.41-50.64,17.27-90.17,1.78-39.63,2.25-52.26,2.25-153.16s-.46-113.56-2.25-153.19ZM674.47,589.08c-1.66,36.22-7.71,55.88-12.8,68.97-6.74,17.34-14.81,29.68-27.82,42.68-13.01,13-25.37,21.05-42.73,27.79-13.09,5.11-32.78,11.15-69.03,12.8-39.19,1.78-50.97,2.17-150.24,2.17s-111.05-.39-150.24-2.17c-36.25-1.67-55.93-7.72-69.04-12.81-17.35-6.73-29.74-14.78-42.76-27.79-13.01-13-21.07-25.36-27.82-42.7-5.09-13.08-11.15-32.74-12.8-68.97-1.78-39.17-2.14-50.93-2.14-150.15,0-55.75.11-83.87.53-104.76h608.53c.43,20.91.55,49.03.55,104.85,0,99.15-.39,110.92-2.17,150.08Z"/>
  </g>
</svg>