<?xml version="1.0" encoding="UTF-8"?>
<svg id="Layer_2" data-name="Layer 2" xmlns="http://www.w3.org/2000/svg" viewBox="0 0 275.56 241.29">
  <g id="Layer_1-2" data-name="Layer 1">
    <path d="M251.02,0H24.54C10.99,0,0,10.99,0,24.54v199.45c0,14.3,16.39,22.41,27.75,13.73l42.49-32.44c4.28-3.27,9.51-5.03,14.89-5.03h165.89c13.55,0,24.54-10.99,24.54-24.54V24.54c0-13.55-10.99-24.54-24.54-24.54ZM169.48,115.69c0,7.69-6.23,13.93-13.93,13.93H57.19c-7.69,0-13.93-6.23-13.93-13.93h0c0-7.69,6.23-13.93,13.93-13.93h98.37c7.69,0,13.93,6.23,13.93,13.93h0ZM232.3,63.02c0,7.69-6.23,13.93-13.93,13.93H57.19c-7.69,0-13.93-6.23-13.93-13.93h0c0-7.69,6.23-13.93,13.93-13.93h161.19c7.69,0,13.93,6.23,13.93,13.93h0Z"/>
  </g>
</svg>