<?xml version="1.0" encoding="UTF-8"?>
<svg id="Layer_2" data-name="Layer 2" xmlns="http://www.w3.org/2000/svg" viewBox="0 0 489.31 319.52">
  <g id="Layer_1-2" data-name="Layer 1">
    <path d="M472.15,189.01c-7.25,0-13.98-4.63-16.32-11.9-27.03-84.09-113.87-142.81-211.18-142.81S60.51,93.02,33.48,177.11c-2.9,9.01-12.55,13.97-21.57,11.08-9.02-2.9-13.97-12.56-11.08-21.57,15.21-47.32,47.42-89.85,90.68-119.74C135.89,16.21,188.85,0,244.65,0s108.76,16.21,153.14,46.87c43.26,29.89,75.47,72.41,90.68,119.74,2.9,9.02-2.06,18.67-11.08,21.57-1.74.56-3.51.83-5.25.83Z"/>
    <path d="M315.18,198.08c-38.95,0-70.52-31.58-70.52-70.52,0-7.96,1.34-15.61,3.77-22.74-1.25-.04-2.51-.1-3.77-.1-59.32,0-107.4,48.08-107.4,107.4s48.08,107.4,107.4,107.4,107.4-48.08,107.4-107.4c0-7.89-.88-15.58-2.49-22.99-10.17,5.69-21.9,8.95-34.38,8.95Z"/>
  </g>
</svg>